<?xml version="1.0" encoding="UTF-8" standalone="no"?>
<!-- Created with Inkscape (http://www.inkscape.org/) -->

<svg
   version="1.1"
   id="svg2"
   width="800"
   height="474.66666"
   viewBox="0 0 800 474.66666"
   sodipodi:docname="2208.m05.iG15.n028.eps"
   xmlns:inkscape="http://www.inkscape.org/namespaces/inkscape"
   xmlns:sodipodi="http://sodipodi.sourceforge.net/DTD/sodipodi-0.dtd"
   xmlns="http://www.w3.org/2000/svg"
   xmlns:svg="http://www.w3.org/2000/svg">
  <defs
     id="defs6" />
  <sodipodi:namedview
     id="namedview4"
     pagecolor="#ffffff"
     bordercolor="#000000"
     borderopacity="0.25"
     inkscape:showpageshadow="2"
     inkscape:pageopacity="0.0"
     inkscape:pagecheckerboard="0"
     inkscape:deskcolor="#d1d1d1" />
  <g
     id="g8"
     inkscape:groupmode="layer"
     inkscape:label="ink_ext_XXXXXX"
     transform="matrix(1.3333333,0,0,-1.3333333,0,474.66667)">
    <g
       id="g10"
       transform="scale(0.1)">
      <path
         d="M 6000,0 H 0 V 3560 H 6000 V 0"
         style="fill:#121629;fill-opacity:1;fill-rule:nonzero;stroke:none"
         id="path12" />
      <path
         d="m 1404.92,2799.55 -31.19,-9.88 90.39,80.56 h 20.75 z m -152.4,157.43 h 261.8 l 18.01,-18 -167.95,-149.69 v 129.11 c 0,0.14 -0.02,0.28 -0.04,0.41 0.12,0.91 -0.17,1.83 -0.83,2.5 l -19.77,19.77 c -0.56,0.56 -1.31,0.87 -2.1,0.87 h -104.15 z m 169.64,153.92 c -0.78,0 -1.54,-0.31 -2.1,-0.87 l -60.26,-60.27 h -50.31 l -34.43,34.43 h 66.58 c 0.79,0 1.54,0.31 2.1,0.87 l 19.77,19.76 c 0.18,0.2 0.33,0.41 0.46,0.64 0.03,0.05 0.06,0.1 0.09,0.15 0.11,0.23 0.21,0.48 0.26,0.73 0,0.01 0,0.03 0,0.04 0.04,0.18 0.06,0.36 0.06,0.55 v 129.11 l 140.41,-125.14 z m -267.1,-26.71 h 43.15 l 34.43,-34.43 h -43.15 z m 69.36,0 h 24.43 l 34.43,-34.43 h -24.43 z m 260.45,70.9 h -20.75 l -90.38,80.55 31.19,-9.87 z m 167.26,-142.43 c 0,0.15 -0.02,0.29 -0.04,0.43 -0.02,0.16 -0.05,0.3 -0.1,0.45 -0.01,0.06 -0.01,0.12 -0.03,0.17 -0.04,0.09 -0.09,0.15 -0.13,0.23 -0.06,0.13 -0.14,0.26 -0.22,0.39 -0.09,0.13 -0.19,0.24 -0.3,0.35 -0.05,0.07 -0.09,0.14 -0.15,0.2 l -156.49,139.46 c 0,0 0,0 0,0 v 0.01 l -86.29,76.28 c -0.3,0.27 -0.67,0.48 -1.07,0.6 l -45.01,14.25 -0.01,-0.03 c -0.67,0.22 -1.42,0.21 -2.09,-0.09 -1.07,-0.48 -1.75,-1.54 -1.75,-2.7 v -132.77 h -219.35 -10.42 c -1.2,0 -2.29,-0.72 -2.75,-1.83 -0.46,-1.11 -0.2,-2.38 0.65,-3.23 l 0.27,-0.27 -0.27,-0.27 59.59,-59.59 c 0.55,-0.56 1.31,-0.87 2.1,-0.87 h 172.76 c 0.79,0 1.54,0.31 2.1,0.87 l 60.26,60.26 h 88.06 l 103.56,-92.3 -13.26,-11.82 -86.1,78.71 c -0.54,0.5 -1.26,0.78 -2,0.78 h -58.71 v 8.89 h -5.93 v -23.72 h 5.93 v 8.9 h 57.56 l 84.79,-77.53 -60.52,-53.94 -19.12,19.12 c -0.56,0.55 -1.31,0.86 -2.1,0.86 h -264.26 c -0.78,0 -1.54,-0.31 -2.1,-0.86 l -19.77,-19.78 0.33,-0.32 h -97.57 v 103.89 l 17.56,17.56 -4.19,4.2 -18.43,-18.43 c -0.56,-0.56 -0.87,-1.31 -0.87,-2.1 v -108.09 -19.77 -0.81 c 0,-1.64 1.33,-2.97 2.96,-2.97 h 92.83 l 13.66,13.67 h 25.19 l 13.67,-13.67 h 83.89 v -132.76 c 0,-0.03 0.01,-0.05 0.01,-0.07 0,-0.26 0.03,-0.52 0.11,-0.77 v -0.01 c 0,-0.02 0,-0.03 0.01,-0.05 0.03,-0.11 0.1,-0.19 0.15,-0.29 0.07,-0.16 0.14,-0.33 0.23,-0.47 0.09,-0.13 0.21,-0.24 0.31,-0.35 0.1,-0.1 0.18,-0.21 0.3,-0.29 0.12,-0.1 0.26,-0.18 0.41,-0.26 0.07,-0.05 0.14,-0.11 0.22,-0.15 0.05,-0.02 0.1,-0.03 0.16,-0.05 0.09,-0.03 0.18,-0.06 0.28,-0.09 0.21,-0.06 0.42,-0.09 0.64,-0.1 0.04,0 0.08,-0.02 0.13,-0.02 0.29,0 0.6,0.04 0.89,0.14 l 45.01,14.24 c 0.4,0.13 0.76,0.33 1.07,0.61 l 86.29,76.29 c 0,0 0,0 0,0 v 0 l 33.62,29.96 0.75,13.22 41.21,36.79 13.3,-0.76 67.61,60.26 c 0.06,0.05 0.1,0.13 0.15,0.19 0.11,0.11 0.21,0.22 0.3,0.35 0.08,0.13 0.16,0.26 0.22,0.4 0.04,0.07 0.09,0.13 0.13,0.22 0.02,0.05 0.02,0.11 0.03,0.17 0.05,0.15 0.08,0.3 0.1,0.45 0.02,0.15 0.04,0.29 0.04,0.43"
         style="fill:#40f4ff;fill-opacity:1;fill-rule:nonzero;stroke:none"
         id="path14" />
      <path
         d="m 3013.9,3160.11 -4.43,3.95 15.78,17.71 4.43,-3.95 z m 10.85,-9.66 15.78,17.7 4.43,-3.94 -15.79,-17.72 z m 15.27,-13.63 15.78,17.72 4.43,-3.95 -15.78,-17.71 z m -223.09,-276.41 4.42,3.95 15.79,-17.72 -4.43,-3.94 z m 31.06,-4.09 -15.79,17.71 4.43,3.94 15.79,-17.7 z m 15.28,13.61 -15.79,17.71 4.42,3.95 15.79,-17.71 z m 15.27,13.62 -15.79,17.71 4.43,3.95 15.79,-17.71 z m 15.28,13.61 -15.79,17.72 4.43,3.94 15.79,-17.71 z m 15.27,13.62 -15.78,17.7 4.42,3.96 15.79,-17.72 z m 15.28,13.61 -15.79,17.72 4.43,3.94 15.79,-17.71 z m 15.27,13.62 -15.78,17.71 4.43,3.94 15.78,-17.71 z m 15.28,13.61 -15.78,17.71 4.42,3.95 15.79,-17.71 z m 15.28,13.62 -15.79,17.71 4.43,3.94 15.78,-17.71 z m 15.27,13.61 -15.78,17.71 4.43,3.95 15.78,-17.71 z m -78.49,-1.81 39.43,35.19 -39.43,35.2 -1.09,19.06 -146.63,130.69 h 14.92 v -0.09 h 35.01 l 97.16,-86.59 c 0.54,-0.48 1.24,-0.75 1.97,-0.75 h 31.89 l 108.75,-96.92 -21.67,-19.33 -85.75,76.42 c 0.84,1.63 1.32,3.47 1.32,5.43 0,6.55 -5.31,11.86 -11.86,11.86 -6.55,0 -11.86,-5.31 -11.86,-11.86 0,-6.56 5.31,-11.87 11.86,-11.87 2.44,0 4.71,0.74 6.6,2.01 l 85.23,-75.96 -181.93,-162.24 h -81.64 l 146.63,130.69 z m 60.37,-106.02 4.28,37.03 c 0.04,0.43 -0.01,0.86 -0.14,1.25 l 112.1,99.97 h 62.96 l -142.02,-125.9 c -0.63,-0.56 -0.99,-1.37 -0.99,-2.22 v -26.39 l -27.47,-27.47 h -57.78 z m -29.81,304.48 17.31,-17.31 c 0.56,-0.55 1.31,-0.87 2.1,-0.87 h 28.75 l 17.94,-15.99 c -0.06,-0.23 -0.1,-0.47 -0.1,-0.72 v -26.48 c 0,-0.85 0.36,-1.65 0.99,-2.22 l 108.52,-96.71 h -57.84 l -111.89,99.73 c -0.55,0.48 -1.25,0.75 -1.98,0.75 h -31.89 l -67.12,59.82 z m -119.53,21.68 h 97.85 l 15.75,-15.75 h -95.93 z m 61.52,-369.89 85.62,76.35 -3.43,-29.69 -52.35,-46.66 z m 151.26,369.89 48.22,-42.98 1.2,-33.04 c 0.03,-0.81 0.39,-1.57 0.99,-2.11 l 55.76,-49.7 c 0.55,-0.48 1.25,-0.75 1.98,-0.75 h 36.05 l 20.44,-18.22 h 16.43 l 42.73,-38.15 -42.73,-38.14 h -16.43 l -20.44,-18.21 h -36.05 c -0.73,0 -1.43,-0.27 -1.98,-0.76 l -56.97,-50.78 c -0.61,-0.55 -0.98,-1.34 -1,-2.17 l -0.51,-32.37 -47.7,-42.51 h -46.33 l 24.15,24.15 c 0.56,0.55 0.87,1.31 0.87,2.09 v 26.29 l 146.02,129.45 h 38.34 c 1.29,-5.16 5.94,-8.98 11.49,-8.98 6.56,0 11.87,5.31 11.87,11.86 0,6.55 -5.31,11.86 -11.87,11.86 -5.49,0 -10.1,-3.74 -11.44,-8.81 h -39.81 l -165.27,147.3 c -0.54,0.49 -1.25,0.75 -1.97,0.75 h -28.66 l -33.92,33.93 z m 53.7,-322.02 0.42,25.62 55.16,49.16 h 28.33 z m 83.91,199.37 h -28.33 l -53.98,48.11 -0.94,26.09 z m 106.45,-62.3 c 0,0.01 0,0.01 0,0.01 0,0.1 -0.02,0.2 -0.03,0.3 -0.01,0.1 -0.01,0.21 -0.03,0.32 v 0 c -0.01,0.09 -0.05,0.16 -0.08,0.24 0,0.02 -0.01,0.04 -0.02,0.06 -0.03,0.1 -0.05,0.2 -0.09,0.28 0,0.01 0,0.01 0,0.01 -0.05,0.09 -0.11,0.18 -0.16,0.26 0,0.01 -0.01,0.02 -0.01,0.03 -0.05,0.08 -0.08,0.17 -0.14,0.24 v 0 c -0.07,0.09 -0.15,0.16 -0.22,0.24 -0.07,0.07 -0.12,0.16 -0.19,0.22 l -66.07,59.33 c -0.34,0.31 -0.76,0.49 -1.2,0.62 l -90.04,80.24 -53.54,47.74 c -0.54,0.48 -1.24,0.75 -1.98,0.75 h -29.14 c -0.02,0 -0.03,-0.01 -0.04,-0.01 h -113.55 l -0.58,0.58 -0.58,-0.58 h -165.69 c -0.35,0 -0.68,-0.07 -1,-0.19 -0.33,0.12 -0.68,0.19 -1.04,0.19 h -29.14 c -1.23,0 -2.33,-0.75 -2.77,-1.91 -0.44,-1.15 -0.12,-2.45 0.8,-3.27 l 131.64,-117.33 1.97,-17.15 57.38,-51.22 -57.37,-51.21 -1.98,-17.15 -131.64,-117.33 c -0.92,-0.82 -1.24,-2.12 -0.8,-3.27 0.44,-1.15 1.54,-1.91 2.77,-1.91 h 29.14 c 0.36,0 0.71,0.07 1.04,0.19 0.32,-0.11 0.65,-0.19 1,-0.19 h 90.57 29.71 189.3 c 0.73,0 1.43,0.27 1.98,0.75 l 55.66,49.62 87.93,78.36 c 0.44,0.12 0.85,0.3 1.19,0.61 l 65.52,58.84 0.54,0.48 c 0.47,0.42 0.79,0.98 0.92,1.6 0.02,0.08 0.01,0.17 0.03,0.26 0,0.04 0,0.07 0.01,0.11 0,0.08 0.02,0.16 0.02,0.24 v 0 c 0,0 0,0 0,0 v 0 0 0"
         style="fill:#40f4ff;fill-opacity:1;fill-rule:nonzero;stroke:none"
         id="path16" />
      <path
         d="m 3657.79,2975.23 2.99,-5.14 68.8,40.02 c 0.92,0.53 1.47,1.51 1.47,2.57 0,1.05 -0.55,2.03 -1.47,2.56 0,0 -45.37,26.4 -68.82,40.01 l -2.99,-5.12 c 19.03,-11.05 52.46,-30.5 64.42,-37.45 z m -79.04,-3.58 14.46,39.99 c 0.25,0.66 0.25,1.37 0,2.02 0,0 -6.04,16.73 -14.49,40.04 l -5.58,-2.02 c 7.24,-19.95 12.71,-35.08 14.14,-39.02 l -14.11,-38.99 z m 125.04,-90.46 v -20.77 l -21.93,-12.76 2.97,-5.12 23.41,13.61 c 0.92,0.53 1.48,1.51 1.48,2.56 v 20.77 l 32.55,18.93 -2.98,5.13 -34.03,-19.79 c -0.91,-0.53 -1.47,-1.51 -1.47,-2.56 z m 4.45,287.98 -23.41,13.61 -2.97,-5.12 21.93,-12.76 v -20.76 c 0,-1.06 0.56,-2.03 1.47,-2.57 l 34.03,-19.79 2.98,5.13 -32.55,18.93 v 20.77 c 0,1.05 -0.56,2.03 -1.48,2.56 z m 74.36,-288.54 -22.7,-13.2 v 41.24 l 80.84,47.01 -2.99,5.13 -82.3,-47.87 c -0.91,-0.53 -1.48,-1.51 -1.48,-2.56 v -46.4 l -100.19,-58.28 1.9,-16.69 72.2,41.99 14.1,-3.73 63.27,36.8 z m 30.5,17.73 -7.8,-4.53 22.66,-16.56 7.78,4.53 z m -15.26,-8.87 -7.78,-4.53 22.65,-16.55 7.79,4.52 z m 119.69,118.22 42.09,-30.75 53.03,30.75 z m 95.12,9.89 -53.03,30.76 -42.09,-30.76 z m -207.35,113.89 7.79,-4.53 22.65,16.56 -7.78,4.52 z m -15.24,8.87 7.78,-4.54 22.66,16.56 -7.79,4.53 z m -176.9,-128.72 -41.97,-116.02 143.31,83.36 v -45.76 l 9.76,5.67 0.92,46.29 11.72,6.82 v -45.76 l 114.19,66.42 -114.19,66.42 v -45.74 l -11.72,6.81 -0.92,46.28 -9.76,5.68 v -45.75 l -143.32,83.36 41.98,-116.06 c 0.24,-0.65 0.24,-1.36 0,-2.02 z m -67.01,-183.2 c -0.03,-0.02 -0.07,-0.03 -0.1,-0.05 l -6.96,-4.04 24.1,66.62 0.01,0.01 44.02,121.67 -46.98,129.87 -21.15,58.46 7.06,-4.09 v 0 l 102.38,-59.55 4.81,-18.19 28.62,-16.65 18.19,4.82 23.97,-13.94 v 0 l 9.19,-5.35 125.16,-72.8 c 0.91,-0.53 1.47,-1.52 1.47,-2.57 0,-0.37 -0.07,-0.73 -0.19,-1.06 -0.25,-0.62 -0.69,-1.17 -1.28,-1.51 l -158.32,-92.09 -18.19,4.81 -28.62,-16.64 -4.81,-18.19 z m 511.5,184.22 c 0,-0.37 -0.07,-0.73 -0.2,-1.06 -0.23,-0.62 -0.68,-1.17 -1.28,-1.51 l -114.82,-66.79 0.05,-0.04 -98.19,-57.12 -22.65,16.56 18.4,10.7 13.65,-3.6 28.61,16.64 3.61,13.65 33.92,19.72 17.36,-12.69 17.17,9.99 -48.8,35.66 -63.74,-37.09 -2.99,5.13 65.43,38.05 c 1.01,0.6 2.29,0.53 3.24,-0.16 l 52.32,-38.25 90.02,52.21 -90.02,52.2 -52.32,-38.23 c -0.95,-0.7 -2.22,-0.77 -3.24,-0.17 l -65.43,38.05 -82.3,47.87 c -0.91,0.53 -1.48,1.51 -1.48,2.56 v 46.4 l -100.19,58.29 1.9,16.68 72.2,-41.99 14.1,3.73 63.27,-36.8 -22.65,-16.56 -22.7,13.2 v -41.24 l 80.84,-47.02 63.74,-37.07 48.8,35.66 -17.17,9.98 -17.36,-12.69 -33.92,19.72 -3.61,13.65 -28.61,16.65 -13.65,-3.62 -18.4,10.71 22.65,16.56 98.19,-57.11 -0.06,-0.05 114.83,-66.79 c 0.92,-0.53 1.49,-1.52 1.48,-2.57"
         style="fill:#40f4ff;fill-opacity:1;fill-rule:nonzero;stroke:none"
         id="path18" />
      <path
         d="m 4820.23,3012.29 h -0.01 v -0.01 z"
         style="fill:#163c5b;fill-opacity:1;fill-rule:nonzero;stroke:none"
         id="path20" />
      <path
         d="m 4617.72,3009.69 -6.92,-6.92 h -130.52 l -6.91,6.92 h -38.6 l 51.89,-103.77 12.72,-4.29 14.27,-28.77 -4.21,-12.5 11.18,-22.35 188.85,109.86 3.44,13.04 27.75,16.17 13.11,-3.45 61.99,36.06 h -198.04"
         style="fill:#163c5b;fill-opacity:1;fill-rule:nonzero;stroke:none"
         id="path22" />
      <path
         d="m 4480.28,3022.54 h 130.52 l 6.92,-6.93 h 198.04 l -62.01,36.08 -13.09,-3.45 -27.75,16.17 -3.43,13.03 -188.86,109.85 -11.18,-22.33 4.21,-12.5 -14.27,-28.77 -12.71,-4.29 -51.9,-103.79 h 38.6 l 6.91,6.93"
         style="fill:#163c5b;fill-opacity:1;fill-rule:nonzero;stroke:none"
         id="path24" />
      <path
         d="m 4693.86,2896.47 -11.56,3.06 c -0.77,0.19 -1.57,0.09 -2.25,-0.31 l -64.06,-37.27 c -0.69,-0.4 -1.18,-1.05 -1.38,-1.81 l -3.06,-11.54 -19.82,-11.53 -87.8,175.59 87.79,175.58 19.84,-11.54 3.05,-11.52 c 0.2,-0.77 0.69,-1.41 1.38,-1.81 l 64.06,-37.27 c 0.46,-0.26 0.98,-0.4 1.49,-0.4 0.26,0 0.51,0.03 0.76,0.1 l 11.54,3.05 43.04,-25.03 v -23.72 l 115.67,-67.28 -0.31,-0.18 0.3,-0.17 -115.66,-67.27 v -23.71 z m -4.92,-14.95 -61.95,-36.04 -9.46,2.5 2.5,9.46 61.94,36.04 9.47,-2.51 z m -102.35,-47.44 -12.14,-7.06 -21.86,43.52 6.29,18.96 z m -81.27,404.42 64,-37.22 -22.58,-44.95 c -0.35,-0.7 -0.41,-1.52 -0.17,-2.26 l 8.5,-25.63 0.14,0.05 -57.21,-114.43 c -0.24,-0.43 -0.36,-0.91 -0.36,-1.41 0,-0.54 0.15,-1.06 0.42,-1.51 l 57.16,-114.33 -0.15,0.05 -8.5,-25.63 c -0.24,-0.74 -0.18,-1.55 0.17,-2.25 l 22.58,-44.95 -64,-37.22 -112.93,225.84 z m 53.56,-102.69 -6.29,18.96 21.86,43.52 12.13,-7.06 z m 58.65,41.53 9.46,2.5 61.95,-36.03 2.5,-9.46 -9.47,-2.5 -61.94,36.03 z m 283.51,-167.21 4.36,2.53 -4.4,2.57 h -0.01 l -50.91,29.61 -11.98,-3.32 -64.5,36.54 -3.71,13.42 -72.07,41.91 -3.46,13.12 c -0.21,0.76 -0.71,1.41 -1.38,1.81 l -64.06,37.27 c -0.69,0.39 -1.49,0.5 -2.26,0.3 l -13.12,-3.47 -107.96,62.79 c -0.45,0.26 -0.96,0.39 -1.48,0.39 -0.65,0.28 -1.39,0.35 -2.1,0.12 l -10.66,-3.55 -15.87,-5.28 c -0.74,-0.25 -1.36,-0.79 -1.71,-1.5 l -21.78,-43.53 c -0.35,-0.71 -0.41,-1.52 -0.16,-2.27 l 4.31,-12.94 4.52,-13.58 c 0.04,-0.12 0.11,-0.21 0.17,-0.32 l -74.39,-148.77 c -0.21,-0.41 -0.32,-0.87 -0.32,-1.34 0,-0.46 0.11,-0.91 0.32,-1.32 l 74.38,-148.76 c -0.05,-0.1 -0.12,-0.2 -0.16,-0.31 l -4.52,-13.58 -4.31,-12.94 c -0.25,-0.75 -0.19,-1.57 0.16,-2.27 l 21.78,-43.53 c 0.35,-0.71 0.97,-1.24 1.71,-1.49 l 15.87,-5.29 10.66,-3.55 c 0.3,-0.1 0.63,-0.15 0.94,-0.15 0.4,0 0.8,0.09 1.16,0.24 0.52,0.01 1.03,0.14 1.48,0.4 l 107.97,62.8 13.11,-3.46 c 0.25,-0.07 0.51,-0.1 0.76,-0.1 0.52,0 1.04,0.14 1.5,0.4 l 64.06,37.28 c 0.67,0.39 1.17,1.04 1.38,1.8 l 3.45,13.09 39.07,22.73 v 0 l 9.06,5.27 23.95,13.93 3.71,13.43 64.5,36.54 12,-3.32 50.89,29.6 c 0.03,0.01 0.04,0.04 0.05,0.05"
         style="fill:#40f4ff;fill-opacity:1;fill-rule:nonzero;stroke:none"
         id="path26" />
      <path
         d="m 4433.29,2833.27 3.7,11.12 -11.73,23.44 -33.38,-19.41 33.55,-67.09 0.82,-1.64 h 33.84 l -26.8,53.58"
         style="fill:#40f4ff;fill-opacity:1;fill-rule:nonzero;stroke:none"
         id="path28" />
      <path
         d="m 4416.96,3140.88 5.66,11.29 -33.39,19.42 -5.65,-11.3 33.38,-19.41"
         style="fill:#40f4ff;fill-opacity:1;fill-rule:nonzero;stroke:none"
         id="path30" />
      <path
         d="m 4422.61,2873.15 -5.65,11.29 -33.39,-19.41 5.66,-11.3 33.38,19.42"
         style="fill:#40f4ff;fill-opacity:1;fill-rule:nonzero;stroke:none"
         id="path32" />
      <path
         d="m 4425.27,3157.48 11.72,23.45 -3.7,11.12 26.79,53.56 h -33.83 l -34.37,-68.71 33.39,-19.42"
         style="fill:#40f4ff;fill-opacity:1;fill-rule:nonzero;stroke:none"
         id="path34" />
      <path
         d="m 4414.31,2889.76 -61.46,122.89 61.46,122.91 -33.38,19.42 -11.22,-22.45 6.95,-20.88 -29.11,-58.18 -20.86,-6.95 -16.26,-32.54 -0.31,-0.64 v -1.4 l 16.56,-33.13 20.87,-6.95 29.11,-58.19 -6.96,-20.89 11.22,-22.44 33.39,19.42"
         style="fill:#40f4ff;fill-opacity:1;fill-rule:nonzero;stroke:none"
         id="path36" />
      <path
         d="m 4759.81,3012.66 c 0,1.05 -0.56,2.03 -1.47,2.56 l -87.41,50.84 -3.12,16.18 c -0.15,0.85 -0.67,1.57 -1.41,2.01 l -21.27,12.37 c -0.75,0.43 -1.63,0.51 -2.44,0.24 l -16.89,-5.73 c -1.09,-0.37 -1.87,-1.36 -1.99,-2.51 -0.12,-1.16 0.45,-2.28 1.45,-2.86 l 41.52,-24.14 v 0 l 84.17,-48.96 -84.11,-48.93 c -0.02,-0.02 -0.04,-0.02 -0.06,-0.03 l -41.52,-24.14 c -1,-0.58 -1.57,-1.7 -1.45,-2.86 0.12,-1.15 0.9,-2.14 1.99,-2.51 l 16.89,-5.73 c 0.3,-0.1 0.62,-0.16 0.94,-0.16 0.52,0 1.04,0.14 1.5,0.4 l 21.27,12.37 c 0.74,0.43 1.26,1.16 1.41,2 l 3.11,16.17 87.42,50.85 c 0.91,0.54 1.47,1.51 1.47,2.57"
         style="fill:#40f4ff;fill-opacity:1;fill-rule:nonzero;stroke:none"
         id="path38" />
      <path
         d="m 4794.66,3076.21 35.67,-20.76 2.99,5.12 -35.67,20.76 -2.99,-5.12"
         style="fill:#40f4ff;fill-opacity:1;fill-rule:nonzero;stroke:none"
         id="path40" />
      <path
         d="m 4830.33,2969.88 -35.67,-20.77 2.99,-5.13 35.67,20.77 -2.99,5.13"
         style="fill:#40f4ff;fill-opacity:1;fill-rule:nonzero;stroke:none"
         id="path42" />
      <path
         d="m 605.629,3092.64 -128.828,74.93 131.676,-154.93 -131.676,-154.91 128.808,74.93 4.629,17.47 107.492,62.51 -107.492,62.54 -4.609,17.46"
         style="fill:#163c5b;fill-opacity:1;fill-rule:nonzero;stroke:none"
         id="path44" />
      <path
         d="m 657.191,3067.31 9.579,-5.57 38.265,22.26 -9.574,5.57 -38.27,-22.26"
         style="fill:#40f4ff;fill-opacity:1;fill-rule:nonzero;stroke:none"
         id="path46" />
      <path
         d="m 827.688,3012.68 -116.754,67.89 -38.266,-22.26 78.5,-45.66 -78.48,-45.64 38.253,-22.25 106.016,61.66 v 0 l 0.715,0.42 0.109,0.06 9.907,5.78"
         style="fill:#40f4ff;fill-opacity:1;fill-rule:nonzero;stroke:none"
         id="path48" />
      <path
         d="m 514.734,2853.42 -5.007,-18.93 -147.368,-85.61 26.86,31.6 21.207,12.34 z m 0,318.48 -125.488,72.9 -26.887,31.65 147.368,-85.62 z m 136.579,-217.32 -26.606,-15.47 -4.609,-17.46 -78.493,-45.64 -1.062,-0.62 -0.012,-0.04 -132.578,-77.11 -7.191,-4.18 130.797,153.9 c 0.136,0.17 0.234,0.34 0.332,0.52 l 52.89,62.24 c 0.457,0.54 0.707,1.22 0.707,1.92 v 0.02 c 0,0.7 -0.25,1.38 -0.707,1.92 l -52.851,62.19 c -0.11,0.2 -0.215,0.41 -0.371,0.59 l -130.778,153.87 139.754,-81.28 0.008,-0.02 79.555,-46.27 4.609,-17.45 26.586,-15.47 38.27,22.26 -158.297,92.06 7.129,-27 -16.383,9.52 -6.867,25.96 c -0.2,0.76 -0.692,1.41 -1.375,1.8 l -163.372,94.91 c -0.062,0.04 -0.128,0.04 -0.195,0.07 -0.219,0.11 -0.441,0.2 -0.683,0.25 -0.122,0.03 -0.243,0.03 -0.364,0.04 -0.195,0.02 -0.386,0.02 -0.586,0 -0.136,-0.02 -0.269,-0.05 -0.406,-0.09 -0.094,-0.02 -0.195,-0.02 -0.289,-0.06 -0.082,-0.03 -0.145,-0.08 -0.223,-0.12 -0.129,-0.06 -0.246,-0.13 -0.363,-0.21 -0.176,-0.11 -0.32,-0.24 -0.465,-0.38 -0.054,-0.06 -0.129,-0.1 -0.183,-0.16 -0.032,-0.04 -0.039,-0.08 -0.063,-0.11 -0.14,-0.18 -0.246,-0.38 -0.344,-0.59 -0.039,-0.1 -0.097,-0.18 -0.125,-0.27 -0.089,-0.26 -0.129,-0.53 -0.14,-0.82 0,-0.05 -0.024,-0.09 -0.024,-0.13 0,-0.01 0,-0.01 0,-0.02 l 0.637,-57.09 c 0.012,-0.7 0.258,-1.36 0.707,-1.89 l 83.195,-97.89 c 0.539,-0.64 1.329,-1.02 2.161,-1.05 l 23.316,-0.75 46.457,-54.66 c 0.543,-0.64 1.328,-1.02 2.16,-1.05 l 23.176,-0.75 50.883,-59.87 -50.867,-59.85 -23.192,-0.75 c -0.832,-0.03 -1.617,-0.41 -2.16,-1.05 l -46.457,-54.66 -23.316,-0.75 c -0.832,-0.03 -1.622,-0.41 -2.161,-1.05 l -83.195,-97.89 c -0.449,-0.52 -0.695,-1.2 -0.707,-1.88 l -0.637,-57.1 c 0,-0.01 0,-0.01 0,-0.02 0,-0.04 0.024,-0.09 0.024,-0.13 0.011,-0.29 0.051,-0.56 0.14,-0.82 0.028,-0.09 0.086,-0.18 0.125,-0.26 0.098,-0.21 0.204,-0.42 0.344,-0.6 0.024,-0.04 0.031,-0.07 0.063,-0.11 0.113,-0.13 0.246,-0.25 0.375,-0.36 0.031,-0.02 0.05,-0.05 0.078,-0.07 0.219,-0.17 0.461,-0.3 0.711,-0.4 0.027,-0.01 0.043,-0.03 0.07,-0.04 0.031,-0.02 0.07,-0.01 0.105,-0.02 0.297,-0.11 0.61,-0.17 0.926,-0.17 h 0.004 v 0 h 0.008 c 0.004,0 0.008,0 0.012,0 0.23,0 0.461,0.04 0.683,0.09 0.075,0.02 0.145,0.05 0.215,0.08 0.16,0.04 0.313,0.11 0.465,0.18 0.035,0.02 0.074,0.03 0.105,0.05 l 163.372,94.91 c 0.683,0.4 1.175,1.04 1.375,1.81 l 6.863,25.93 16.387,9.53 -7.129,-27 158.304,92.08 -38.257,22.25"
         style="fill:#40f4ff;fill-opacity:1;fill-rule:nonzero;stroke:none"
         id="path50" />
      <path
         d="m 666.785,2963.58 -9.574,-5.57 38.258,-22.25 9.574,5.57 -38.258,22.25"
         style="fill:#40f4ff;fill-opacity:1;fill-rule:nonzero;stroke:none"
         id="path52" />
      <path
         d="m 447.07,2907.31 87.903,103.42 c 0.941,1.11 0.941,2.74 0,3.84 l -87.903,103.42 -4.515,-3.84 86.261,-101.5 -86.261,-101.5 4.515,-3.84"
         style="fill:#40f4ff;fill-opacity:1;fill-rule:nonzero;stroke:none"
         id="path54" />
      <path
         d="m 2148.73,3012.66 -40.86,-34.81 23.38,-0.54 34.76,29.6 6.73,5.75 -6.71,5.73 -34.78,29.61 -23.39,-0.52 z m -76.58,-65.25 23.36,-0.53 28.95,24.66 -23.37,0.53 z m 23.36,131.03 -23.37,-0.53 28.94,-24.66 23.39,0.54 z m -26.93,-151.7 -61.41,-52.33 h 69.93 l 162.25,138.24 -162.24,138.26 h -69.94 l 61.4,-52.32 29.69,0.66 101.67,-86.6 -101.67,-86.58 z m -95.89,253.55 27.52,-23.45 h 69.94 l -27.52,23.45 z m 97.46,-311.81 h -69.94 l -27.52,-23.44 h 69.94 z m -3.69,64.25 29.68,-0.68 94.65,80.61 -5.89,5.03 -88.76,75.58 -29.7,-0.67 -109.86,93.62 h 88.23 l 0.83,-0.71 202.85,-172.86 -203.68,-173.54 h -88.23 z m 256.15,12.43 18.07,-0.42 79.71,67.92 -79.71,67.91 -18.07,-0.41 -130.44,110.98 -0.37,16.3 -41.32,35.2 h -56.18 l 91.94,-78.34 c 1.25,-1.07 1.4,-2.94 0.33,-4.19 -0.58,-0.68 -1.41,-1.04 -2.25,-1.04 -0.68,0 -1.37,0.24 -1.93,0.71 l -51.94,44.27 v -23.54 l 88.45,-75.37 18.17,0.6 99.78,-84.97 9.51,-8.12 -9.53,-8.12 -99.76,-84.94 -18.17,0.6 -88.45,-75.38 v -23.54 l 51.94,44.27 c 1.25,1.06 3.12,0.91 4.18,-0.33 1.07,-1.25 0.92,-3.12 -0.33,-4.19 l -91.94,-78.35 h 56.18 l 41.32,35.21 0.37,16.3 z m -198.09,-128.94 -39.37,-33.55 H 2020 l 269.9,229.99 -269.9,229.98 h 65.15 l 39.37,-33.54 v -29.96 c 0,-0.04 0.01,-0.07 0.01,-0.11 0,-0.1 0.02,-0.21 0.03,-0.32 0.02,-0.08 0.03,-0.17 0.05,-0.26 0.02,-0.1 0.05,-0.19 0.09,-0.28 0.03,-0.1 0.06,-0.18 0.1,-0.27 0.04,-0.08 0.08,-0.17 0.13,-0.24 0.05,-0.09 0.1,-0.18 0.16,-0.26 0.05,-0.06 0.11,-0.13 0.17,-0.2 0.07,-0.09 0.15,-0.16 0.23,-0.24 0.02,-0.02 0.04,-0.05 0.07,-0.07 l 192.72,-164.23 -192.72,-164.23 c -0.03,-0.02 -0.05,-0.05 -0.07,-0.07 -0.08,-0.08 -0.16,-0.16 -0.23,-0.24 -0.06,-0.07 -0.12,-0.13 -0.17,-0.21 -0.06,-0.07 -0.11,-0.16 -0.16,-0.24 -0.05,-0.09 -0.09,-0.17 -0.13,-0.25 -0.04,-0.09 -0.07,-0.18 -0.1,-0.27 -0.04,-0.1 -0.07,-0.18 -0.09,-0.27 -0.02,-0.09 -0.03,-0.18 -0.05,-0.28 -0.01,-0.1 -0.03,-0.21 -0.03,-0.31 0,-0.04 -0.01,-0.08 -0.01,-0.11 v -29.96"
         style="fill:#40f4ff;fill-opacity:1;fill-rule:nonzero;stroke:none"
         id="path56" />
      <path
         d="m 5602.2,3012.66 -49.43,-65.67 4.74,-3.57 52.11,69.24 -52.11,69.24 -4.74,-3.57 z m -37.98,-160.98 -4.75,3.57 -28.96,-38.49 4.73,-3.57 z m 0,321.96 -28.98,38.49 -4.73,-3.57 28.96,-38.49 z m -69.96,-280.5 29.28,38.89 -2.89,20.41 45.34,60.22 -45.34,60.22 2.89,20.41 -29.28,38.9 -20.41,2.87 -60.63,80.55 h -28.73 l 152.77,-202.95 -152.77,-202.95 h 28.73 l 60.63,80.54 z m -172.54,122.49 h -61.23 v -5.94 h 61.23 z m -79.43,5.93 h -5.94 v -17.79 h 5.94 z m -14.58,0 h -5.93 v -17.79 h 5.93 z m -14.57,0 h -5.93 v -17.79 h 5.93 z m -14.57,0 h -5.93 v -17.79 h 5.93 z m -14.57,0 h -5.92 v -17.79 h 5.92 z m 171.05,-8.9 -18.84,-18.85 h -188.77 l -18.85,18.85 18.85,18.84 h 188.77 z m 182.01,77.78 14.22,10.7 -3.57,4.74 -14.22,-10.7 z m -8.76,11.64 14.21,10.7 -3.56,4.74 -14.22,-10.7 z m 1.89,27.08 -14.22,-10.7 3.56,-4.74 14.22,10.7 z m -8.76,11.64 -14.22,-10.7 3.56,-4.74 14.22,10.7 z m -8.77,11.64 -14.21,-10.7 3.56,-4.74 14.22,10.7 z m 3.57,-274.82 -14.22,10.7 -3.56,-4.73 14.21,-10.71 z m 8.76,11.64 -14.22,10.7 -3.56,-4.73 14.22,-10.71 z m 8.76,11.64 -14.22,10.7 -3.56,-4.74 14.22,-10.7 z m -9.02,17.6 14.22,-10.7 3.56,4.74 -14.21,10.7 z m 8.76,11.64 14.22,-10.7 3.57,4.74 -14.22,10.7 z m -67.44,158.09 h -72.89 l -25.06,-25.07 h -62.44 l -25.72,-25.72 h 58.72 l 21.82,-21.81 h 23.82 l 11.31,11.3 h 56.27 l 11.3,-11.3 h 33.7 l -42.07,55.9 4.74,3.57 46.99,-62.44 -46.99,-62.43 -4.74,3.56 42.07,55.9 h -33.7 l -11.3,-11.3 h -56.27 l -11.31,11.3 h -23.82 l -21.82,-21.8 h -58.72 l 25.72,-25.74 h 62.44 l 25.06,-25.06 h 72.89 l 56.89,75.57 z m 117.63,-215.85 105.59,140.28 -105.59,140.28 -24.72,3.49 -44.72,59.18 h -72.35 l 32.94,-43.75 h 36.59 l 83.54,-111 h 22.67 c 0.92,0 1.8,-0.45 2.36,-1.19 l 34.04,-45.23 c 0.79,-1.05 0.79,-2.51 0,-3.56 l -34.04,-45.23 c -0.56,-0.74 -1.44,-1.18 -2.36,-1.18 h -22.67 l -83.54,-111 h -57.84 l -32.94,-43.76 h 93.6 l 44.72,59.18 z m 15.74,98.01 h 16.72 l 31.81,42.27 -31.81,42.26 h -16.72 l 31.82,-42.26 z m -252.07,-14.16 19.13,-19.14 h 18.3 l -19.14,19.14 z m 18.29,112.87 19.15,19.13 h -18.3 l -19.14,-19.13 z m 101.77,102.76 -32.94,43.75 h -13.83 l 32.94,-43.75 z m -164.2,-102.76 h 35.75 l 19.15,19.13 h -85.33 l -22.62,-22.62 h -81.33 v -28.17 h 102.72 z m 35.75,-112.87 19.15,-19.14 h -85.33 l -22.62,22.63 h -81.33 v 28.17 h 102.72 l 31.66,-31.66 h 35.75"
         style="fill:#40f4ff;fill-opacity:1;fill-rule:nonzero;stroke:none"
         id="path58" />
      <path
         d="m 4606.55,1202.86 17.02,15.94 -17.02,15.94 4.06,4.32 19.34,-18.1 c 0.6,-0.56 0.94,-1.34 0.94,-2.16 0,-0.82 -0.34,-1.61 -0.94,-2.17 l -19.34,-18.09 z m 25.21,-21.55 37.73,35.32 c 0.6,0.56 0.94,1.35 0.94,2.17 0,0.82 -0.34,1.6 -0.94,2.16 l -37.73,35.32 v 46.06 l 13.84,-12.96 v -15.78 l 62.19,-55.51 -62.19,-55.52 v -15.64 c 0,-0.05 0.01,-0.08 0.02,-0.12 l -13.86,-12.97 z m 97.27,36.79 c 0,0.82 -0.34,1.6 -0.93,2.16 l -0.72,0.67 c -0.01,0.01 -0.02,0.02 -0.03,0.03 l -32.22,30.17 -63.37,59.34 v 25.79 c 0,0.82 -0.34,1.6 -0.95,2.16 l -30.67,28.73 -4.06,-4.33 29.74,-27.85 v -18.94 l -143.35,134.22 -0.15,-0.15 c -0.71,0.3 -1.53,0.33 -2.28,0.03 -1.08,-0.45 -1.79,-1.5 -1.82,-2.66 l -0.75,-26.39 c -0.02,-0.85 0.32,-1.67 0.94,-2.24 l 32.09,-30.04 c 0.55,-0.53 1.29,-0.8 2.02,-0.8 0.4,0 0.8,0.08 1.18,0.24 1.09,0.47 1.79,1.55 1.79,2.73 v 20.24 l 110.33,-103.31 v -18.95 l -91.17,85.35 -4.05,-4.33 95.22,-89.15 V 1255 c 0,-0.82 0.34,-1.61 0.94,-2.17 l 36.37,-34.03 -36.37,-34.03 c -0.6,-0.57 -0.94,-1.35 -0.94,-2.17 v -25.82 l -95.22,-89.16 4.05,-4.33 91.17,85.36 v -20.37 l -110.33,-103.31 v 20.26 c 0,1.19 -0.7,2.25 -1.79,2.72 -1.08,0.48 -2.34,0.25 -3.2,-0.56 l -32.09,-30.04 c -0.62,-0.57 -0.96,-1.39 -0.94,-2.24 l 0.75,-26.391 c 0.03,-1.16 0.74,-2.207 1.82,-2.66 0.37,-0.137 0.76,-0.219 1.14,-0.219 0.39,0 0.78,0.09 1.14,0.242 l 0.15,-0.152 143.35,134.23 v -18.82 h 5.94 v 24.37 l 96.34,90.21 c 0.59,0.55 0.93,1.36 0.93,2.18"
         style="fill:#40f4ff;fill-opacity:1;fill-rule:nonzero;stroke:none"
         id="path60" />
      <path
         d="m 527.152,1038.96 24.778,15.69 13.566,23.86 -24.773,-15.7 z m 52.965,48.08 -13.57,-23.85 24.769,15.69 13.571,23.85 z m -46.328,288.27 h 27.441 l -90.472,52.63 13.566,-23.86 z m 84.668,-265.68 -13.57,-23.86 90.48,52.63 h -27.445 z m -58.148,201.66 48.152,28 -11.895,6.92 -48.16,-28 z M 421.422,1045.04 v -41.19 l 9.105,5.3 v 41.18 z m 47.383,96.63 v 15.26 l -39.903,-23.2 v -15.26 z m 43.215,9.28 50.648,29.44 -26.773,15.57 -50.051,-29.11 v -15.9 z m -83.118,168.06 v -16.56 l 39.903,-23.2 v 16.55 z m 1.625,107.68 -9.105,5.3 v -39.92 l 9.105,-5.29 z m 83.094,-134.23 81.32,-47.28 45.95,26.71 -12.809,7.46 h -24.644 l -0.696,0.4 -181.32,105.46 v -54.99 l 64.918,-37.76 z m 64.047,-103.35 -26.77,15.57 -9.101,-5.3 26.766,-15.56 z m -35.09,132.49 c 0.152,0.14 0.317,0.27 0.496,0.37 l 47.594,27.67 -29.98,17.44 h -27.7 l -96.535,56.16 v -39.91 z m 86.035,-102.86 -116.593,67.79 h -26.176 v -17.19 l 88.109,-51.25 -17.156,-9.97 26.773,-15.57 z m 39.617,-26.74 45.383,26.4 -45.383,26.39 -9.519,16.74 -12.227,7.11 c -0.238,-0.36 -0.554,-0.68 -0.957,-0.91 l -44.687,-25.98 35.168,-20.45 c 0.043,-0.02 0.078,-0.06 0.121,-0.09 0.094,-0.06 0.184,-0.12 0.273,-0.19 0.067,-0.06 0.137,-0.12 0.2,-0.19 0.07,-0.07 0.136,-0.14 0.199,-0.21 0.07,-0.08 0.129,-0.17 0.179,-0.26 0.036,-0.05 0.071,-0.09 0.098,-0.14 0.024,-0.02 0.031,-0.05 0.047,-0.09 0.047,-0.09 0.094,-0.19 0.133,-0.29 0.031,-0.08 0.066,-0.17 0.09,-0.26 0.031,-0.09 0.05,-0.18 0.062,-0.27 0.024,-0.1 0.039,-0.19 0.051,-0.29 0.012,-0.09 0.012,-0.18 0.012,-0.28 0,-0.1 0,-0.2 -0.012,-0.28 -0.012,-0.1 -0.027,-0.2 -0.051,-0.3 -0.012,-0.08 -0.031,-0.17 -0.062,-0.27 -0.024,-0.09 -0.059,-0.18 -0.09,-0.26 -0.039,-0.1 -0.086,-0.19 -0.133,-0.29 -0.016,-0.03 -0.023,-0.06 -0.047,-0.09 -0.015,-0.03 -0.047,-0.06 -0.066,-0.09 -0.102,-0.16 -0.215,-0.3 -0.348,-0.45 -0.039,-0.04 -0.078,-0.09 -0.117,-0.13 -0.16,-0.14 -0.34,-0.29 -0.539,-0.41 l -103.297,-60.06 44.832,-26.06 c 0.547,-0.32 0.953,-0.79 1.195,-1.33 l 79.953,46.51 z m -163.578,-106.38 68.731,39.99 -46.57,27.08 -13.192,-7.68 H 486.34 l -64.918,-37.75 v -55.36 l 57.965,33.72 z m 312.184,132.47 -120.641,-70.15 H 669.148 L 436.453,1012.6 v 41.19 l 44.527,25.9 h 25.274 l 234.027,136.14 c 0.207,0.13 0.383,0.26 0.543,0.42 0.039,0.04 0.074,0.08 0.114,0.12 0.132,0.14 0.25,0.29 0.351,0.45 0.02,0.04 0.051,0.05 0.066,0.08 0.024,0.04 0.028,0.07 0.047,0.1 0.047,0.1 0.086,0.2 0.129,0.29 0.035,0.09 0.071,0.17 0.094,0.26 0.031,0.1 0.047,0.18 0.063,0.27 0.023,0.1 0.042,0.2 0.05,0.3 0.008,0.09 0.008,0.18 0.008,0.28 0,0.09 0,0.18 -0.008,0.28 -0.008,0.1 -0.027,0.19 -0.05,0.28 -0.012,0.1 -0.032,0.19 -0.063,0.29 -0.023,0.09 -0.059,0.16 -0.094,0.25 -0.039,0.1 -0.082,0.2 -0.136,0.29 -0.012,0.03 -0.024,0.07 -0.04,0.1 -0.027,0.04 -0.062,0.08 -0.089,0.12 -0.059,0.1 -0.121,0.19 -0.192,0.27 -0.062,0.07 -0.129,0.14 -0.191,0.21 -0.067,0.07 -0.137,0.13 -0.215,0.19 -0.082,0.07 -0.164,0.13 -0.258,0.19 -0.043,0.03 -0.078,0.07 -0.129,0.1 l -110.601,64.3 h -24.645 l -38.828,22.59 48.156,28 63.742,-37.07 10.821,-19.02 49.465,-28.77 h 21.879 l 56.566,-32.91"
         style="fill:#40f4ff;fill-opacity:1;fill-rule:nonzero;stroke:none"
         id="path62" />
      <path
         d="m 3626.18,1038.63 c 0.53,-0.37 1.12,-0.54 1.72,-0.54 0.93,0 1.85,0.44 2.42,1.25 l 126.73,178.75 -126.73,178.75 -4.84,-3.43 124.3,-175.32 -124.3,-175.33 c -0.95,-1.32 -0.63,-3.18 0.7,-4.13 z m 345.5,213.66 -39.02,55.03 -53.32,23.57 -12.9,-6.04 -65.23,28.83 -4.21,13.61 -43.36,19.17 95.12,-134.17 z m 8.16,-1.28 c 0.08,-0.11 0.14,-0.23 0.2,-0.34 0.03,-0.06 0.07,-0.12 0.1,-0.18 0.04,-0.09 0.06,-0.19 0.08,-0.28 0.03,-0.09 0.07,-0.18 0.09,-0.28 0.01,-0.07 0.02,-0.14 0.02,-0.2 0.02,-0.13 0.04,-0.26 0.04,-0.38 0,-0.01 0.01,-0.02 0.01,-0.03 0,-0.07 -0.02,-0.14 -0.02,-0.21 -0.01,-0.12 -0.02,-0.22 -0.04,-0.34 -0.02,-0.1 -0.05,-0.19 -0.08,-0.28 -0.02,-0.09 -0.04,-0.18 -0.07,-0.27 -0.04,-0.1 -0.09,-0.18 -0.14,-0.27 -0.04,-0.08 -0.08,-0.17 -0.13,-0.24 -0.06,-0.08 -0.12,-0.16 -0.18,-0.24 -0.06,-0.08 -0.11,-0.15 -0.18,-0.21 -0.08,-0.08 -0.17,-0.16 -0.26,-0.24 -0.05,-0.04 -0.1,-0.09 -0.15,-0.13 -0.01,0 -0.02,0 -0.03,-0.01 -0.21,-0.15 -0.46,-0.27 -0.72,-0.36 -0.06,-0.02 -0.12,-0.04 -0.18,-0.05 -0.25,-0.07 -0.5,-0.12 -0.78,-0.12 -0.01,0 -0.01,0 -0.01,0 v 0 0 h -85.62 l 14.67,-20.7 h 210.95 l -174.17,76.99 36.59,-51.61 c 0,0 0.01,-0.01 0.01,-0.02 z m -192.9,-25.36 h 73.43 l -117.31,165.48 -132.45,58.55 102.69,-144.86 h 17.51 c 0,0 40.52,-57.14 56.13,-79.17 z m 97.57,20.7 h -31.54 l 14.68,-20.7 h 31.54 z m 21.95,-35.82 -14.67,-20.71 h 85.62 c 0.01,0 0.03,0 0.04,0 0.11,0 0.23,-0.02 0.34,-0.03 0.08,-0.01 0.16,-0.01 0.25,-0.03 0.08,-0.01 0.16,-0.05 0.25,-0.08 0.1,-0.03 0.21,-0.05 0.29,-0.1 0.07,-0.02 0.13,-0.06 0.19,-0.1 0.11,-0.06 0.22,-0.11 0.33,-0.18 0.01,-0.01 0.02,-0.01 0.03,-0.02 0.05,-0.04 0.09,-0.09 0.15,-0.13 0.09,-0.07 0.18,-0.15 0.26,-0.23 0.07,-0.06 0.12,-0.14 0.18,-0.21 0.06,-0.08 0.12,-0.16 0.18,-0.24 0.05,-0.08 0.09,-0.16 0.13,-0.25 0.05,-0.09 0.1,-0.17 0.14,-0.26 0.03,-0.09 0.05,-0.19 0.07,-0.27 0.03,-0.09 0.06,-0.19 0.08,-0.29 0.02,-0.11 0.03,-0.22 0.04,-0.33 0,-0.07 0.02,-0.14 0.02,-0.2 0,-0.02 -0.01,-0.03 -0.01,-0.04 0,-0.13 -0.02,-0.25 -0.04,-0.37 0,-0.07 -0.01,-0.15 -0.02,-0.21 -0.02,-0.1 -0.06,-0.2 -0.09,-0.29 -0.02,-0.09 -0.04,-0.19 -0.08,-0.28 -0.03,-0.06 -0.07,-0.11 -0.1,-0.17 -0.06,-0.12 -0.12,-0.23 -0.2,-0.33 0,-0.01 -0.01,-0.02 -0.01,-0.03 l -36.59,-51.61 174.17,76.99 z m -119.52,0 c -15.61,-22.02 -56.13,-79.18 -56.13,-79.18 h -17.51 l -102.69,-144.85 132.45,58.55 117.31,165.48 z m 99.12,-26.63 c -0.01,0 -0.01,0 -0.02,0 v 0 h -37.28 l -95.12,-134.17 43.36,19.17 4.21,13.6 65.23,28.83 12.9,-6.05 53.32,23.58 39.02,55.04 z m -1.54,5.92 h -31.55 l 14.68,20.71 h 31.54 l -14.67,-20.71"
         style="fill:#40f4ff;fill-opacity:1;fill-rule:nonzero;stroke:none"
         id="path64" />
      <path
         d="m 2219.82,1114.18 -15.79,17.69 4.42,3.96 15.8,-17.71 z m -13.57,-12.12 -15.8,17.7 4.42,3.95 15.8,-17.7 z m -13.58,-12.12 -15.8,17.7 4.43,3.95 15.79,-17.7 z m -13.58,-12.12 -15.79,17.7 4.42,3.95 15.8,-17.7 z m -13.57,-12.12 -15.8,17.7 4.42,3.95 15.8,-17.7 z m -13.58,-12.12 -15.8,17.7 4.43,3.95 15.8,-17.7 z m -13.58,-12.12 -15.8,17.7 4.43,3.96 15.8,-17.71 z m -13.57,-12.11 -15.81,17.69 4.43,3.96 15.8,-17.71 z m -24.96,9.52 15.8,-17.7 -4.42,-3.94 -15.8,17.69 z m 11.38,380.09 4.42,-3.95 -15.8,-17.7 -4.42,3.95 z m 13.58,-12.11 4.42,-3.96 -15.8,-17.69 -4.43,3.94 z m 13.57,-12.12 4.43,-3.96 -15.8,-17.69 -4.43,3.94 z m 13.58,-12.12 4.43,-3.96 -15.8,-17.69 -4.43,3.94 z m 13.58,-12.12 4.42,-3.96 -15.8,-17.69 -4.42,3.94 z m 13.57,-12.12 4.43,-3.96 -15.8,-17.69 -4.42,3.94 z m 13.58,-12.12 4.42,-3.96 -15.79,-17.69 -4.43,3.94 z m 13.58,-12.12 4.42,-3.95 -15.8,-17.7 -4.42,3.95 z m 13.57,-12.12 4.43,-3.95 -15.8,-17.7 -4.42,3.95 z M 1984.27,984.48 h 86.48 v -5.929 h -102.03 l 89.96,80.309 h 33.85 l 95.79,85.24 v 21.48 l -93.42,-83.41 -3.96,4.42 4.14,3.7 141.97,126.74 -151.45,135.22 3.96,4.42 98.76,-88.18 v 23.58 l -95.79,85.26 h -33.87 l -89.94,80.29 h 102.03 v -5.93 h -86.48 l 76.65,-68.43 h 33.87 l 99.46,-88.52 v -31.55 l 51.71,-46.16 -51.71,-46.16 v -29.43 l -99.46,-88.51 h -33.85 z m 291.36,180.45 -19.95,-17.81 h -38.64 l 7.89,7.08 31.09,27.75 z m 4.57,102.44 55.09,-49.18 -55.2,-49.28 -19.61,17.03 36.14,32.25 -36.02,32.16 z m -24.06,-13.03 -41.87,37.38 h 38.66 l 22.81,-20.36 z m 18.94,-35.7 -50.85,-45.39 -3.96,4.42 1.35,1.21 44.55,39.76 -47.63,42.53 3.95,4.43 z m -138.42,-204.69 h 38.71 l -22.26,-19.88 h -38.72 z m 39.64,35.39 h 38.71 l -22.26,-19.89 h -38.72 z m 41.1,36.69 h 38.72 l -23.73,-21.19 h -38.71 z m -63.37,320.7 h 38.72 l 22.26,-19.88 h -38.71 z m 21.34,15.51 h -38.71 l -22.27,19.88 h 38.72 z m 57.02,-50.9 23.72,-21.17 h -38.71 l -23.72,21.17 z m 179.02,-153.92 c 0.03,0.13 0.04,0.25 0.05,0.37 0,0.07 0.01,0.13 0.02,0.2 0,0.03 0.01,0.07 0.01,0.11 0,0.03 -0.01,0.06 -0.01,0.1 -0.01,0.06 -0.02,0.13 -0.02,0.19 -0.01,0.13 -0.02,0.25 -0.05,0.37 -0.01,0.05 -0.03,0.09 -0.04,0.13 -0.02,0.05 -0.03,0.09 -0.05,0.14 -0.01,0.04 -0.01,0.08 -0.03,0.12 0,0.02 -0.02,0.03 -0.03,0.05 -0.04,0.11 -0.09,0.2 -0.14,0.3 -0.04,0.07 -0.07,0.13 -0.11,0.19 -0.05,0.07 -0.09,0.13 -0.14,0.2 -0.03,0.05 -0.07,0.08 -0.11,0.13 -0.08,0.1 -0.16,0.19 -0.26,0.28 l -79.45,70.92 h -19.6 l -20.13,17.95 v 17.52 l -25.46,22.72 v 0 l -103.85,92.71 v 0 l -12.35,11.02 -4.18,3.73 v 0 l -0.85,0.76 h -56.52 l 5.8,-5.18 v 0 l 47.23,-42.17 3.99,-3.55 v 0 l 22.26,-19.88 v 0 l 8.5,-7.58 101.4,-90.52 79.16,-70.65 -142.16,-126.9 v 0 l -29.52,-26.36 v 0 l -8.1,-7.22 -31.54,-28.17 v 0 l -17.38,-15.5 v 0 l -22.27,-19.88 v 0 l -4.6,-4.109 -6.97,-6.223 v 0 l -5.8,-5.187 h 56.52 l 0.85,0.769 v 0 l 145.84,130.17 v 17.52 l 20.13,17.96 h 19.6 l 79.45,70.91 c 0.1,0.09 0.18,0.19 0.26,0.29 0.04,0.04 0.08,0.08 0.11,0.12 0.05,0.07 0.09,0.14 0.14,0.2 0.04,0.07 0.07,0.13 0.11,0.19 0.05,0.11 0.1,0.2 0.14,0.3 0.01,0.02 0.03,0.04 0.03,0.06 0.02,0.03 0.02,0.07 0.03,0.11 0.02,0.05 0.03,0.1 0.05,0.14 0.01,0.05 0.03,0.09 0.04,0.13"
         style="fill:#40f4ff;fill-opacity:1;fill-rule:nonzero;stroke:none"
         id="path66" />
      <path
         d="m 2827.22,1408.42 c -0.01,0 185.15,-107.7 276.91,-161.07 l 79.87,16.32 -356.78,144.75"
         style="fill:#40f4ff;fill-opacity:1;fill-rule:nonzero;stroke:none"
         id="path68" />
      <path
         d="m 3267.26,1218.09 -92.69,-37.6 19.36,-3.96 c 59.68,24.21 102.44,41.56 102.44,41.56 l -102.44,41.56 -19.36,-3.96 92.69,-37.6"
         style="fill:#40f4ff;fill-opacity:1;fill-rule:nonzero;stroke:none"
         id="path70" />
      <path
         d="m 3251.48,1218.09 -87.4,35.45 -52.25,-10.66 c 25.88,-15.06 42.61,-24.79 42.61,-24.79 l -42.61,-24.79 52.24,-10.67 c 4.26,1.73 66.52,26.98 87.41,35.46"
         style="fill:#40f4ff;fill-opacity:1;fill-rule:nonzero;stroke:none"
         id="path72" />
      <path
         d="m 3184,1172.5 -79.88,16.32 -276.91,-161.07 c 0,0 218,88.45 356.79,144.75"
         style="fill:#40f4ff;fill-opacity:1;fill-rule:nonzero;stroke:none"
         id="path74" />
      <path
         d="m 2792.99,1192.71 43.63,25.38 -43.63,25.37 -124.23,-25.37 124.23,-25.38"
         style="fill:#163c5b;fill-opacity:1;fill-rule:nonzero;stroke:none"
         id="path76" />
      <path
         d="m 2985.45,1218.09 -82.3,47.87 -101.43,-20.72 46.7,-27.15 -46.7,-27.17 101.41,-20.71 82.32,47.88"
         style="fill:#247992;fill-opacity:1;fill-rule:nonzero;stroke:none"
         id="path78" />
      <path
         d="m 3134.29,1218.09 -120.99,70.37 -19.07,-3.9 114.3,-66.47 -114.3,-66.49 19.07,-3.89 120.99,70.38"
         style="fill:#32b7c8;fill-opacity:1;fill-rule:nonzero;stroke:none"
         id="path80" />
      <path
         d="m 3096.73,1218.09 -111.23,64.69 -73.62,-15.04 85.37,-49.65 -85.38,-49.67 73.62,-15.03 111.24,64.7"
         style="fill:#32b7c8;fill-opacity:1;fill-rule:nonzero;stroke:none"
         id="path82" />
      <path
         d="m 3339.36,1220.84 -249.34,101.14 -2.23,-5.49 242.56,-98.4 -242.56,-98.4 2.23,-5.5 249.34,101.15 c 1.11,0.45 1.84,1.54 1.84,2.75 0,1.21 -0.73,2.29 -1.84,2.75"
         style="fill:#40f4ff;fill-opacity:1;fill-rule:nonzero;stroke:none"
         id="path84" />
      <path
         d="m 5640.63,1183.32 -27.2,9.24 c -0.81,0.28 -1.71,0.19 -2.44,-0.24 l -78.49,-45.65 c -0.74,-0.43 -1.26,-1.16 -1.42,-2 l -5.43,-28.22 -211.24,-122.88 v 85.2 c 0,0.31 -0.04,0.61 -0.13,0.91 -0.03,0.08 -0.08,0.14 -0.11,0.22 -0.09,0.2 -0.17,0.39 -0.28,0.57 -0.07,0.09 -0.15,0.15 -0.22,0.22 -0.13,0.15 -0.25,0.31 -0.4,0.42 -0.09,0.07 -0.19,0.11 -0.28,0.17 -0.17,0.09 -0.31,0.2 -0.49,0.27 l -184.87,69.6 v 133.9 l 184.87,69.6 c 0.18,0.07 0.32,0.17 0.48,0.27 0.1,0.06 0.2,0.09 0.29,0.16 0.15,0.13 0.27,0.27 0.4,0.42 0.07,0.08 0.15,0.13 0.22,0.22 0.11,0.18 0.19,0.37 0.27,0.57 0.04,0.08 0.09,0.15 0.12,0.23 0.09,0.29 0.13,0.59 0.13,0.9 v 85.18 l 211.24,-122.85 5.43,-28.23 c 0.16,-0.84 0.68,-1.57 1.42,-2 l 78.49,-45.65 c 0.46,-0.27 0.96,-0.4 1.48,-0.4 0.32,0 0.65,0.06 0.96,0.15 l 27.21,9.24 59.78,-34.76 z m -108.18,-62.92 4.2,21.83 76.15,44.28 21.04,-7.14 z m 101.4,136.42 -21.05,-7.14 -76.15,44.28 -4.2,21.83 z m 73.96,-36.16 -65.32,37.99 c -0.01,0.01 -0.02,0.02 -0.03,0.02 l -112.66,65.53 c -0.01,0.01 -0.03,0.02 -0.05,0.03 l -216.81,126.09 c -0.1,0.06 -0.22,0.09 -0.31,0.13 -0.07,0.03 -0.12,0.08 -0.19,0.11 -0.04,0.01 -0.07,0 -0.1,0.01 -0.21,0.06 -0.42,0.1 -0.63,0.12 -0.07,0 -0.14,0.02 -0.21,0.02 -0.28,0.01 -0.56,-0.03 -0.84,-0.09 -0.05,-0.02 -0.11,-0.06 -0.18,-0.08 -0.17,-0.06 -0.34,-0.12 -0.51,-0.22 -0.03,-0.01 -0.05,-0.04 -0.07,-0.06 -0.09,-0.05 -0.16,-0.11 -0.24,-0.17 -0.15,-0.12 -0.29,-0.25 -0.42,-0.38 -0.03,-0.04 -0.07,-0.06 -0.1,-0.1 l -12.06,-15 c -0.42,-0.53 -0.65,-1.18 -0.65,-1.86 v -77.82 l -172.82,-65.06 v 0 l -17.3,-6.51 c -1.16,-0.44 -1.93,-1.54 -1.93,-2.77 v -124.97 c 0,-1.25 0.77,-2.35 1.93,-2.78 l 17.3,-6.51 172.82,-65.07 v -77.81 c 0,-0.68 0.23,-1.33 0.65,-1.86 l 12.06,-15.012 c 0.02,-0.019 0.05,-0.039 0.07,-0.058 0.11,-0.122 0.22,-0.239 0.35,-0.348 0.05,-0.051 0.1,-0.082 0.16,-0.121 0.08,-0.063 0.15,-0.141 0.25,-0.199 0.06,-0.032 0.13,-0.051 0.2,-0.082 0.02,-0.008 0.04,-0.02 0.07,-0.032 0.39,-0.168 0.8,-0.277 1.22,-0.277 0.33,0 0.65,0.07 0.96,0.18 0.01,0 0.01,0 0.02,0 0.01,0 0.02,0.007 0.03,0.019 0.16,0.059 0.32,0.11 0.47,0.199 l 216.82,126.101 c 0.01,0.01 0.03,0.02 0.04,0.03 l 112.66,65.53 c 0.02,0.01 0.04,0.03 0.06,0.04 l 65.29,37.98 c 0.91,0.52 1.48,1.5 1.48,2.56 0,1.05 -0.57,2.04 -1.48,2.56"
         style="fill:#40f4ff;fill-opacity:1;fill-rule:nonzero;stroke:none"
         id="path86" />
      <path
         d="m 5498.56,1169.25 83.99,48.85 -83.99,48.85 -0.12,0.65 -147.44,85.75 v -23.29 l -62.72,-23.6 v -176.71 l 62.72,-23.62 v -23.29 l 147.44,85.75 0.12,0.66"
         style="fill:#40f4ff;fill-opacity:1;fill-rule:nonzero;stroke:none"
         id="path88" />
      <path
         d="M 5492.89,1296.49 5351,1379.01 v -18.8 l 145.95,-84.89 -4.06,21.17"
         style="fill:#40f4ff;fill-opacity:1;fill-rule:nonzero;stroke:none"
         id="path90" />
      <path
         d="m 5351,1057.17 141.89,82.54 4.06,21.16 -145.95,-84.88 v -18.82"
         style="fill:#40f4ff;fill-opacity:1;fill-rule:nonzero;stroke:none"
         id="path92" />
      <path
         d="m 5164.21,1176.46 20.67,-7.79 v 98.85 l -20.67,-7.78 v -83.28"
         style="fill:#1d5b76;fill-opacity:1;fill-rule:nonzero;stroke:none"
         id="path94" />
      <path
         d="m 5205.57,1160.89 20.67,-7.79 v 129.99 l -20.67,-7.79 v -114.41"
         style="fill:#2b98ad;fill-opacity:1;fill-rule:nonzero;stroke:none"
         id="path96" />
      <path
         d="m 5246.91,1145.31 20.69,-7.78 v 161.13 l -20.69,-7.78 v -145.57"
         style="fill:#39d5e4;fill-opacity:1;fill-rule:nonzero;stroke:none"
         id="path98" />
      <path
         d="m 5512.42,1282.42 -2.98,-5.13 101.72,-59.19 -101.72,-59.19 2.98,-5.13 110.53,64.32 -110.53,64.32"
         style="fill:#40f4ff;fill-opacity:1;fill-rule:nonzero;stroke:none"
         id="path100" />
      <path
         d="m 1212.55,1218.09 -98.69,-131.11 v -0.56 h -0.43 l -6.32,-8.39 h 110 l 105.44,140.06 -105.44,140.07 h -110 l 6.34,-8.41 h 0.41 v -0.55 l 98.69,-131.11"
         style="fill:#163c5b;fill-opacity:1;fill-rule:nonzero;stroke:none"
         id="path102" />
      <path
         d="m 1224.54,1078.03 h 109.99 l 105.42,140.06 -105.42,140.07 h -110 l 105.45,-140.07 -105.44,-140.06"
         style="fill:#216a84;fill-opacity:1;fill-rule:nonzero;stroke:none"
         id="path104" />
      <path
         d="m 1451.93,1078.03 105.44,140.06 -105.44,140.07 h -109.98 l 105.42,-140.07 -105.42,-140.06 h 109.98"
         style="fill:#2b98ad;fill-opacity:1;fill-rule:nonzero;stroke:none"
         id="path106" />
      <path
         d="m 1459.35,1078.03 h 110 l 105.42,140.06 -105.42,140.07 h -110 l 105.44,-140.07 -105.44,-140.06"
         style="fill:#36c6d6;fill-opacity:1;fill-rule:nonzero;stroke:none"
         id="path108" />
      <path
         d="m 1745.14,1219.86 -27.6,36.67 h -46.96 l 28.94,-38.44 -28.94,-38.45 h 46.96 l 27.6,36.66 c 0.8,1.05 0.8,2.51 0,3.56"
         style="fill:#40f4ff;fill-opacity:1;fill-rule:nonzero;stroke:none"
         id="path110" />
      <path
         d="m 1664.4,1130.02 -28.29,-37.58 2.49,-17.67 43.48,57.74 -17.68,-2.49"
         style="fill:#40f4ff;fill-opacity:1;fill-rule:nonzero;stroke:none"
         id="path112" />
      <path
         d="m 1636.11,1343.73 28.29,-37.59 17.68,-2.49 -43.48,57.76 -2.49,-17.68"
         style="fill:#40f4ff;fill-opacity:1;fill-rule:nonzero;stroke:none"
         id="path114" />
      <path
         d="m 1666.11,1173.7 -86.91,-115.46 h -510.78 l 21.2,28.18 h -27.19 l -22.1,-29.36 c -0.68,-0.89 -0.78,-2.1 -0.28,-3.1 0.5,-1.01 1.53,-1.65 2.65,-1.65 h 18.85 0.92 518.21 39.54 c 0.94,0 1.82,0.44 2.37,1.19 l 10.97,14.56 -3.67,25.98 31.25,41.51 25.98,3.67 25.96,34.48 h -46.97"
         style="fill:#40f4ff;fill-opacity:1;fill-rule:nonzero;stroke:none"
         id="path116" />
      <path
         d="m 1089.63,1349.75 -21.21,28.18 h 510.78 l 86.91,-115.46 h 46.97 l -25.96,34.47 -25.98,3.68 -31.25,41.51 3.67,25.99 -10.97,14.56 c -0.55,0.75 -1.43,1.18 -2.37,1.18 h -39.54 -518.21 -0.92 -18.85 c -1.12,0 -2.15,-0.64 -2.65,-1.64 -0.5,-1.01 -0.4,-2.21 0.28,-3.11 l 22.11,-29.36 h 27.19"
         style="fill:#40f4ff;fill-opacity:1;fill-rule:nonzero;stroke:none"
         id="path118" />
      <path
         d="m 1094.09,1092.34 22.61,30.04 h -27.2 l -22.61,-30.04 h 27.2"
         style="fill:#40f4ff;fill-opacity:1;fill-rule:nonzero;stroke:none"
         id="path120" />
      <path
         d="m 1116.7,1313.78 -22.61,30.04 h -27.19 l 22.61,-30.04 h 27.19"
         style="fill:#40f4ff;fill-opacity:1;fill-rule:nonzero;stroke:none"
         id="path122" />
      <path
         d="m 1121.16,1128.32 66.23,87.98 c 0.79,1.05 0.79,2.51 0,3.56 l -66.22,87.98 h -27.2 l 67.57,-89.75 -67.58,-89.77 h 27.2"
         style="fill:#40f4ff;fill-opacity:1;fill-rule:nonzero;stroke:none"
         id="path124" />
      <path
         d="m 5501.29,2159.44 1.14,-20.2 73.61,-34.87 -118.35,10.95 15.41,57.48 z m -51.15,-49.38 210.33,-19.44 -159.55,75.57 v 0 l -31.71,15.02 -19.07,-71.15"
         style="fill:#40f4ff;fill-opacity:1;fill-rule:nonzero;stroke:none"
         id="path126" />
      <path
         d="m 5373,2172.44 7.31,-2.01 12.58,46.93 -6.96,3.3 -12.93,-48.22"
         style="fill:#40f4ff;fill-opacity:1;fill-rule:nonzero;stroke:none"
         id="path128" />
      <path
         d="m 5386.04,2168.87 63.64,-17.42 9.29,34.61 -60.63,28.72 -12.3,-45.91"
         style="fill:#40f4ff;fill-opacity:1;fill-rule:nonzero;stroke:none"
         id="path130" />
      <path
         d="m 5257.17,2204.14 110.11,-30.14 13.2,49.24 -40.33,19.11 -23.69,-10.34 -68.41,32.41 -32.86,-11.2 41.98,-49.08"
         style="fill:#40f4ff;fill-opacity:1;fill-rule:nonzero;stroke:none"
         id="path132" />
      <path
         d="m 5340.94,2130.06 49.28,-4.55 8.91,-10.72 39.72,-3.68 9.29,34.61 -113.99,31.2 -15.06,-13.71 -46.48,12.72 -22.45,26.91 c -0.19,0.23 -0.28,0.48 -0.32,0.73 l -40.69,47.59 -60.09,-20.49 86.15,-100.72 95,-8.79 10.73,8.9"
         style="fill:#40f4ff;fill-opacity:1;fill-rule:nonzero;stroke:none"
         id="path134" />
      <path
         d="m 5272.51,2269.89 -2.55,-5.35 40.57,-19.22 2.54,5.36 -40.56,19.21"
         style="fill:#40f4ff;fill-opacity:1;fill-rule:nonzero;stroke:none"
         id="path136" />
      <path
         d="m 5449.68,2015.68 -63.64,-17.41 12.3,-45.92 60.63,28.72 -9.29,34.61"
         style="fill:#40f4ff;fill-opacity:1;fill-rule:nonzero;stroke:none"
         id="path138" />
      <path
         d="m 5367.28,1993.13 -110.11,-30.13 -41.98,-49.08 32.86,-11.21 68.41,32.42 23.69,-10.34 40.33,19.1 -13.2,49.24"
         style="fill:#40f4ff;fill-opacity:1;fill-rule:nonzero;stroke:none"
         id="path140" />
      <path
         d="m 5249.84,1963.56 c 0.04,0.26 0.13,0.51 0.32,0.73 l 22.45,26.92 46.48,12.72 15.06,-13.72 113.99,31.2 -9.29,34.62 -39.72,-3.68 -8.91,-10.72 -49.28,-4.56 -10.73,8.91 -95,-8.79 -86.15,-100.73 60.09,-20.48 40.69,47.58"
         style="fill:#40f4ff;fill-opacity:1;fill-rule:nonzero;stroke:none"
         id="path142" />
      <path
         d="m 5380.31,1996.7 -7.31,-2 12.93,-48.23 6.96,3.3 -12.58,46.93"
         style="fill:#40f4ff;fill-opacity:1;fill-rule:nonzero;stroke:none"
         id="path144" />
      <path
         d="m 5313.07,1916.46 -2.54,5.36 -40.57,-19.22 2.55,-5.36 40.56,19.22"
         style="fill:#40f4ff;fill-opacity:1;fill-rule:nonzero;stroke:none"
         id="path146" />
      <path
         d="m 5457.69,2051.82 118.35,10.94 -73.61,-34.87 -1.14,-20.2 -28.19,-13.36 z m 133.97,18.34 -141.52,-13.08 19.07,-71.15 191.26,90.59 -68.81,-6.36 v 0"
         style="fill:#40f4ff;fill-opacity:1;fill-rule:nonzero;stroke:none"
         id="path148" />
      <path
         d="m 5206.67,2122.61 -20.15,1.74 22.57,-40.78 -22.57,-40.78 20.15,1.74 21.61,39.04 -21.61,39.04"
         style="fill:#163c5b;fill-opacity:1;fill-rule:nonzero;stroke:none"
         id="path150" />
      <path
         d="m 5403.16,2072.4 15.8,-9.57 240.55,20.74 -240.55,20.74 -15.8,-9.57 -120.94,10.39 -12.64,12.05 -55.79,4.82 20.48,-37 c 0.49,-0.89 0.49,-1.97 0,-2.87 l -20.48,-36.99 55.79,4.81 12.64,12.05 120.94,10.4"
         style="fill:#163c5b;fill-opacity:1;fill-rule:nonzero;stroke:none"
         id="path152" />
      <path
         d="m 4714.89,2035.01 -31.16,-0.58 -15.6,-13.3 31.17,0.58 z m -30.53,-26.02 -31.17,-0.58 -15.59,-13.3 31.16,0.58 z m 61.07,52.04 -31.16,-0.58 -15.6,-13.3 31.16,0.58 z m -235.3,-174.53 31.16,0.58 111.42,94.93 -31.18,-0.58 z m 24.14,70.47 17.5,14.91 -3.85,4.52 -17.5,-14.92 z m 133.86,189.03 15.6,-13.29 31.16,-0.59 -15.59,13.3 z m -30.53,26.02 15.59,-13.29 31.17,-0.59 -15.6,13.3 z m 92.23,-52.62 -31.16,0.58 15.6,-13.3 31.16,-0.58 z m -219.7,161.23 111.4,-94.93 31.18,-0.58 -111.42,94.93 z m 160.64,-31.26 -10.01,8.52 -22.4,-22.4 10.01,-8.53 z m -203.56,67.15 h 74.71 l -13.83,13.84 h -47.05 z m 166.63,-77.17 -23.16,19.73 v 17.54 l -39.9,34 h -30.49 l 0.04,-0.03 h -104.97 l -21.67,-17.02 c -0.53,-0.41 -1.17,-0.63 -1.83,-0.63 h -38.5 l -21.67,-17.02 c -0.53,-0.41 -1.17,-0.63 -1.84,-0.63 h -31.63 c -1.26,0 -2.39,0.8 -2.8,1.99 -0.41,1.2 -0.02,2.52 0.97,3.31 l 44.96,35.3 c 0.52,0.41 1.16,0.63 1.82,0.63 h 31.64 v -5.93 h -30.61 l -37.39,-29.37 h 22.02 l 21.67,17.02 c 0.53,0.41 1.17,0.63 1.83,0.63 h 38.5 l 21.67,17.02 0.01,-0.01 c 0.51,0.39 1.13,0.64 1.83,0.64 h 24.48 l 18.89,18.9 c 0.56,0.56 1.32,0.87 2.1,0.87 h 49.51 c 0.78,0 1.54,-0.31 2.09,-0.87 l 18.9,-18.9 h 1.01 39.54 c 0.7,0 1.39,-0.25 1.92,-0.7 l 63.45,-54.07 z m -244.46,-347.5 v -5.93 h 92.96 c 0.71,0 1.38,0.25 1.92,0.71 l 228.47,194.68 c 0.67,0.56 1.05,1.39 1.05,2.26 0,0.86 -0.38,1.69 -1.05,2.26 l -228.47,194.68 c -0.54,0.46 -1.21,0.71 -1.92,0.71 h -92.96 v -5.93 h 91.87 l 224.99,-191.72 -224.99,-191.72 z m 162.39,303.4 -17.5,14.92 -3.85,-4.52 17.5,-14.91 z m 18.21,-207.85 110.21,93.91 c 0.66,0.56 1.04,1.39 1.04,2.26 0,0.86 -0.38,1.69 -1.04,2.26 l -110.21,93.9 -3.85,-4.51 107.56,-91.65 -107.56,-91.65 z m -28.06,-136.78 h -74.71 l 13.83,-13.85 h 47.05 z m 114.31,54.77 -63.45,-54.07 c -0.53,-0.46 -1.22,-0.7 -1.92,-0.7 h -39.54 -1.01 l -18.9,-18.91 c -0.55,-0.55 -1.31,-0.87 -2.09,-0.87 h -49.51 c -0.78,0 -1.54,0.32 -2.1,0.87 l -18.89,18.91 h -24.48 c -0.7,0 -1.32,0.24 -1.83,0.63 h -0.01 l -21.67,17.02 h -38.5 c -0.66,0 -1.3,0.22 -1.83,0.63 l -21.67,17.02 h -22.02 l 37.39,-29.38 h 30.61 v -5.92 h -31.64 c -0.66,0 -1.3,0.21 -1.82,0.63 l -44.96,35.3 c -0.99,0.78 -1.38,2.11 -0.97,3.3 0.41,1.2 1.54,2 2.8,2 h 31.63 c 0.67,0 1.31,-0.22 1.84,-0.63 l 21.67,-17.03 h 38.5 c 0.66,0 1.3,-0.22 1.83,-0.63 l 21.67,-17.02 h 104.97 l -0.04,-0.03 h 30.49 l 39.9,34 v 17.55 l 23.15,19.72 z m 70.86,78.34 c 0.06,0.78 0.43,1.51 1.03,2.02 l 57.93,49.36 c 0.12,0.15 0.25,0.29 0.4,0.41 l 56.38,48.05 -56.38,48.05 c -0.15,0.12 -0.28,0.25 -0.4,0.4 l -57.93,49.37 c -0.6,0.51 -0.97,1.24 -1.03,2.02 l -1.54,19.28 -50.26,42.81 -22.39,-22.39 163.75,-139.54 -163.75,-139.54 22.39,-22.4 50.26,42.82 z m 57.74,42.55 -51.93,-44.25 -0.97,-12.14 51.94,44.26 z m -136.46,-86.11 -10.01,-8.52 22.4,-22.41 10.01,8.53 z m 83.56,257.08 51.94,-44.26 0.96,-12.14 -51.93,44.26 -0.97,12.14"
         style="fill:#40f4ff;fill-opacity:1;fill-rule:nonzero;stroke:none"
         id="path154" />
<!--      <path-->
<!--         d="m 3072.68,1929.97 h 25.08 l 115.62,153.61 -27.07,35.28 -25.5,1.21 -39.02,51.84 -83.72,111.64 h 78.37 l 39.38,-52.33 h 25.35 l 111.13,-147.66 -50.29,-66.83 -25.66,-1.22 -60.51,-80.11 c -0.21,-0.16 -0.38,-0.33 -0.54,-0.54 l -38.6,-51.28 h -78.94 z m 114.27,151.8 c 0.79,1.06 0.79,2.52 0,3.57 l -21.51,28.58 17.83,-0.85 22.66,-29.53 -111.13,-147.64 h -17.66 z m -20.29,170.31 h -19.11 l -23.69,31.47 h 19.11 z m 11.24,-14.93 h -19.12 l -6.77,8.99 h 19.12 z m -11.76,-322.78 -5.17,17.98 58.38,77.3 h 18.52 z m 133.44,170.97 -152.75,202.96 c -0.57,0.74 -1.45,1.18 -2.38,1.18 h -112.63 c -1.13,0 -2.15,-0.64 -2.65,-1.64 -0.51,-1.01 -0.4,-2.21 0.28,-3.11 l 87.34,-116.04 40.8,-54.4 0.15,-0.01 23.13,-30.72 -111.15,-147.66 h -0.27 l -40,-53.16 c -0.42,-0.55 -0.6,-1.2 -0.58,-1.84 -0.05,-0.54 0.05,-1.1 0.3,-1.6 0.5,-1.01 1.52,-1.64 2.65,-1.64 h 86.36 24.75 1.52 c 0.93,0 1.81,0.43 2.38,1.18 l 152.75,202.93 c 0.8,1.06 0.8,2.52 0,3.57"-->
<!--         style="fill:#40f4ff;fill-opacity:1;fill-rule:nonzero;stroke:none"-->
<!--         id="path156" />-->
<!--      <path-->
<!--         d="m 3202.09,2024.53 5.6,7.39 9.24,0.44 16.4,0.79 37.96,50.41 -98.51,130.84 h -25.34 l -5.93,7.89 -33.45,44.45 h -36.61 l 66.23,-88 31.8,-42.25 16.25,-0.77 9.16,-0.46 5.58,-7.25 24.87,-32.4 9.15,-11.93 -9.03,-12.02 -113.39,-150.62 -5.93,-7.88 h -25.09 l -9.6,-12.77 h 36.88 l 93.76,124.14"-->
<!--         style="fill:#163c5b;fill-opacity:1;fill-rule:nonzero;stroke:none"-->
<!--         id="path158" />-->
<!--      <path-->
<!--         d="m 2975.82,1883.58 h -17.91 l 61.24,81.59 h 18.09 z m 43.97,198.19 c 0.81,1.06 0.81,2.52 0,3.57 l -149.18,198.21 h 80.45 l 82.86,-110.04 c 0.53,-0.7 1.34,-1.14 2.22,-1.18 l 24.26,-1.15 52.09,-69.2 c 5.25,-6.98 10.05,-13.36 13.86,-18.42 -30.01,-39.87 -77.74,-103.08 -84.82,-112.46 h -23.86 c -0.94,0 -1.82,-0.44 -2.38,-1.18 l -64.8,-86.34 h -79.87 z m 113.24,1.79 c 0,0.62 -0.2,1.25 -0.6,1.78 -19.13,25.41 -68.06,90.46 -68.1,90.51 0,0 0,0 -0.01,0.01 l -84.65,112.44 c -0.02,0.03 -0.05,0.04 -0.08,0.07 -0.56,0.7 -1.39,1.11 -2.29,1.11 h -112.63 c -1.13,0 -2.16,-0.64 -2.65,-1.64 -0.51,-1.01 -0.4,-2.21 0.28,-3.11 L 3013.72,2083.56 2862.3,1882.4 c -0.68,-0.9 -0.79,-2.1 -0.28,-3.1 0.49,-1.01 1.52,-1.64 2.65,-1.64 h 112.63 c 0.93,0 1.81,0.43 2.37,1.18 l 152.76,202.93 c 0.4,0.53 0.6,1.16 0.6,1.79"-->
<!--         style="fill:#36c6d6;fill-opacity:1;fill-rule:nonzero;stroke:none"-->
<!--         id="path160" />-->
<!--      <path-->
<!--         d="m 3001.85,1980 5.93,7.91 h 24.26 l 72,95.65 -53.63,71.26 -15.07,0.73 -9.28,0.44 -5.57,7.41 -77.81,103.34 h -39.67 l 137.89,-183.18 -137.89,-183.17 h 39.07 l 59.77,79.61"-->
<!--         style="fill:#15334f;fill-opacity:1;fill-rule:nonzero;stroke:none"-->
<!--         id="path162" />-->
<!--      <path-->
<!--         d="m 2806.12,1883.58 h -17.32 l 11.92,15.84 h 17.32 z m 10.89,37.48 67.39,89.54 17.48,0.2 -67.55,-89.74 z m -4.47,-5.93 h 17.33 l -7.37,-9.78 h -17.31 z m 37.56,166.64 c 0.79,1.06 0.79,2.52 0,3.57 l -149.19,198.21 h 79.87 l 38.49,-51.15 c 0.56,-0.74 1.44,-1.18 2.38,-1.18 h 23.86 l 42.86,-56.95 68.28,-90.71 -35.07,-46.59 -15.19,-20.18 -23.51,-0.28 c -0.92,-0.01 -1.78,-0.45 -2.33,-1.18 l -99.17,-131.75 h -80.47 z m -9.06,155.38 h -17.91 l -34.93,46.4 h 17.92 z m 122.29,-153.59 c 0,0.62 -0.2,1.25 -0.6,1.78 l -73.19,97.24 -79.57,105.72 c -0.56,0.74 -1.43,1.18 -2.37,1.18 h -112.63 c -1.13,0 -2.15,-0.64 -2.66,-1.64 -0.5,-1.01 -0.39,-2.21 0.29,-3.11 L 2844.02,2083.56 2692.6,1882.4 c -0.68,-0.9 -0.79,-2.1 -0.29,-3.1 0.51,-1.01 1.53,-1.64 2.66,-1.64 h 112.63 c 0.94,0 1.81,0.43 2.37,1.18 l 152.76,202.93 c 0.4,0.53 0.6,1.16 0.6,1.79"-->
<!--         style="fill:#2b98ad;fill-opacity:1;fill-rule:nonzero;stroke:none"-->
<!--         id="path164" />-->
<!--      <path-->
<!--         d="m 2867.11,2025.44 5.85,7.77 9.73,0.1 15.23,0.18 h 0.01 l 37.69,50.07 -98.5,130.84 h -25.35 l -5.93,7.89 -33.43,44.45 h -37.83 l 137.89,-183.18 -137.87,-183.17 h 38.4 l 94.11,125.05"-->
<!--         style="fill:#142942;fill-opacity:1;fill-rule:nonzero;stroke:none"-->
<!--         id="path166" />-->
      <path
         d="m 2137.86,1972.24 -14.49,-8.45 23.18,-11.31 12.64,7.35 z m 197.49,111.77 v 0 z m -126.22,-51.48 41.99,24.42 c 0.46,0.27 0.97,0.41 1.49,0.41 h 31.01 l 30.1,17.5 -227.6,132.38 h -29.56 c -0.52,0 -1.03,0.14 -1.49,0.4 l -101.21,58.87 c -0.45,0.26 -0.83,0.64 -1.09,1.09 l -15.55,27.35 c -0.66,1.16 -0.46,2.63 0.49,3.57 0.95,0.94 2.42,1.14 3.58,0.46 l 148.22,-86.22 c 0.54,-0.31 0.94,-0.78 1.19,-1.32 l 81.86,-47.61 h 19.66 l -119.51,69.51 1.49,2.56 1.49,2.56 261.15,-151.88 v 0 0 l 15.72,-9.16 c 0.91,-0.53 1.47,-1.51 1.47,-2.57 0,-1.05 -0.56,-2.03 -1.48,-2.56 l -15.57,-9.05 c -0.06,-0.04 -0.11,-0.07 -0.16,-0.1 l -171.73,-99.87 -21.34,12.4 49.44,28.84 z m 13.52,-92.32 -9.19,-16.17 84.98,49.53 h -18.59 z m 114.75,102.87 -31.72,-18.45 c -0.09,-0.05 -0.18,-0.11 -0.26,-0.17 l -187.14,-108.84 c -1.17,-0.68 -1.73,-2.05 -1.38,-3.34 0.35,-1.29 1.52,-2.19 2.87,-2.19 h 33.03 c 0.53,0 1.04,0.13 1.49,0.4 l 125.08,72.75 h 32.23 c 0.52,0 1.04,0.14 1.49,0.4 l 63.26,36.79 z m 128.11,34.34 -16.51,9.61 v 0 l -16.53,9.61 c 0,0 -0.01,0 -0.02,0.01 l -47.01,27.34 h -23.17 l -101.22,58.87 -11.45,20.14 -50.63,29.45 -38.91,-22.66 232,-134.94 -11.91,-6.93 c -0.07,-0.03 -0.14,-0.07 -0.21,-0.11 l -36.64,-21.31 38.95,-22.64 50.24,29.22 c 0.09,0.05 0.18,0.1 0.26,0.17 l 0.4,0.23 15.84,9.21 h 0.01 v 0 l 16.51,9.6 c 0.91,0.54 1.47,1.51 1.47,2.57 0,1.05 -0.56,2.03 -1.47,2.56 z m -439.45,-215.44 h 44.83 l 21.32,12.4 h -44.83 z m 41.1,23.9 h 44.82 l 21.33,12.41 h -44.83 z m -82.19,-47.79 h 44.83 l 21.32,12.39 h -44.83 z m 208.11,397.78 -25.72,14.96 c -0.45,0.26 -0.96,0.41 -1.49,0.41 h -32.22 l -133.07,77.41 c -1.16,0.68 -2.63,0.49 -3.58,-0.46 -0.96,-0.94 -1.16,-2.4 -0.5,-3.57 l 16.34,-28.73 c 0.26,-0.45 0.63,-0.83 1.09,-1.1 l 140.23,-81.56 z m -267.39,-393.56 -0.09,0.15 -3.1,-1.81 c -0.47,-0.26 -0.98,-0.4 -1.49,-0.4 -0.77,0 -1.52,0.3 -2.09,0.86 -0.95,0.95 -1.16,2.41 -0.49,3.58 l 15.55,27.34 c 0.26,0.46 0.63,0.84 1.09,1.09 l 103.79,60.38 h 32.58 l 45.77,26.7 23.17,-11.31 -87.65,-50.97 c -0.45,-0.27 -0.97,-0.41 -1.49,-0.41 h -30.64 l -94.91,-55.2"
         style="fill:#40f4ff;fill-opacity:1;fill-rule:nonzero;stroke:none"
         id="path168" />
      <path
         d="m 1490.5,2034.13 -13.02,1.65 -81.35,-72.52 c -0.41,-0.37 -0.71,-0.85 -0.87,-1.38 l -17.13,-58.79 -45.36,-40.42 36.23,124.36 105.84,94.31 c 0.63,0.56 0.99,1.37 0.99,2.22 0,0.84 -0.36,1.65 -0.99,2.21 l -105.83,94.33 -36.24,124.37 45.36,-40.43 17.13,-58.8 c 0.16,-0.54 0.46,-1.02 0.87,-1.39 l 81.35,-72.51 13.02,1.65 55.46,-49.42 h -14.78 l 0.02,-0.02 h -0.01 14.77 z m -86.01,-107.54 -18.02,-16.06 14.24,48.87 18.03,16.06 z m -103.27,154.75 c 0.63,0.56 0.99,1.37 0.99,2.22 0,0.84 -0.36,1.65 -0.99,2.21 l -100.66,89.72 h 164.71 l 103.14,-91.93 -103.14,-91.91 h -164.71 z m 103.27,159.2 14.25,-48.89 -18.03,16.06 -14.25,48.9 z m 183.56,-156.98 c 0,0.84 -0.36,1.65 -0.99,2.21 l -52.98,47.22 h -10.18 l -51.84,45.64 -3.74,12.97 -139.31,124.17 c -0.99,0.88 -2.44,1 -3.56,0.29 -1.12,-0.71 -1.63,-2.07 -1.26,-3.34 l 38.26,-131.3 h -169.67 c -1.23,0 -2.34,-0.76 -2.78,-1.91 -0.43,-1.15 -0.12,-2.45 0.8,-3.26 l 103.99,-92.69 -103.99,-92.67 c -0.92,-0.82 -1.23,-2.12 -0.8,-3.27 0.44,-1.15 1.55,-1.91 2.78,-1.91 h 169.67 l -38.26,-131.3 c -0.37,-1.27 0.14,-2.63 1.26,-3.34 0.49,-0.3 1.04,-0.45 1.58,-0.45 0.71,0 1.42,0.25 1.98,0.75 l 80.05,71.34 c 0,0.01 0.01,0.01 0.01,0.01 l 59.26,52.81 3.73,12.96 51.84,45.64 h 10.17 l 52.99,47.21 c 0.63,0.56 0.99,1.37 0.99,2.21 v 0 c 0,0 0,0 0,0.01"
         style="fill:#40f4ff;fill-opacity:1;fill-rule:nonzero;stroke:none"
         id="path170" />
      <path
         d="m 1313.19,2158.69 h -22.84 l 84.28,-75.14 -84.27,-75.1 h 22.83 l 84.28,75.1 -84.28,75.14"
         style="fill:#216a84;fill-opacity:1;fill-rule:nonzero;stroke:none"
         id="path172" />
      <path
         d="m 1267.51,2158.69 h -22.84 l 84.29,-75.14 -84.28,-75.1 h 22.83 l 84.29,75.1 -84.29,75.14"
         style="fill:#163c5b;fill-opacity:1;fill-rule:nonzero;stroke:none"
         id="path174" />
      <path
         d="m 1443.15,2083.56 -84.28,75.13 h -22.84 l 84.28,-75.14 -84.27,-75.1 h 22.83 l 84.28,75.11"
         style="fill:#2b98ad;fill-opacity:1;fill-rule:nonzero;stroke:none"
         id="path176" />
      <path
         d="m 1524.91,2083.57 -38.38,34.2 8.05,-16.42 8.72,-17.79 -8.73,-17.81 -8.04,-16.39 38.36,34.19 0.02,0.01 v 0.01"
         style="fill:#216a84;fill-opacity:1;fill-rule:nonzero;stroke:none"
         id="path178" />
      <path
         d="m 607.008,2099.31 27.488,15.99 -101.668,59.14 -22.012,-19.18 96.192,-55.95"
         style="fill:#163c5b;fill-opacity:1;fill-rule:nonzero;stroke:none"
         id="path180" />
      <path
         d="m 446.559,1974.5 v -31.99 l 80.543,46.86 -22.012,19.17 -58.531,-34.04"
         style="fill:#163c5b;fill-opacity:1;fill-rule:nonzero;stroke:none"
         id="path182" />
      <path
         d="m 652.406,2048.28 1.012,-0.35 61.27,35.63 -61.29,35.65 -0.921,-0.31 -60.747,-35.34 60.676,-35.28"
         style="fill:#163c5b;fill-opacity:1;fill-rule:nonzero;stroke:none"
         id="path184" />
      <path
         d="m 510.504,2011.69 22.012,-19.18 101.972,59.33 -27.484,15.98 -96.5,-56.13"
         style="fill:#163c5b;fill-opacity:1;fill-rule:nonzero;stroke:none"
         id="path186" />
      <path
         d="m 527.41,2177.59 -80.851,47.02 v -31.97 l 58.839,-34.23 22.012,19.18"
         style="fill:#163c5b;fill-opacity:1;fill-rule:nonzero;stroke:none"
         id="path188" />
      <path
         d="m 601.105,2071.25 -21.179,12.31 21.183,12.32 -154.55,89.9 v -28.84 l 19.332,-16.84 v -112.96 l -19.332,-16.84 v -28.94 l 154.546,89.89"
         style="fill:#163c5b;fill-opacity:1;fill-rule:nonzero;stroke:none"
         id="path190" />
      <path
         d="m 380.332,1957.01 v 253.12 l 13.832,12.05 v -277.22 z m 15.297,-49.27 c 0.465,-0.27 0.98,-0.41 1.5,-0.41 0.5,0 0.996,0.13 1.449,0.38 l 19.774,11.05 c 0.933,0.53 1.515,1.52 1.515,2.59 v 162.21 0.01 162.21 c 0,1.08 -0.582,2.07 -1.515,2.59 l -19.774,11.05 c -0.922,0.52 -2.039,0.51 -2.949,-0.03 -0.906,-0.53 -1.465,-1.5 -1.465,-2.55 v -26.8 l -18.742,-16.32 c -0.652,-0.57 -1.02,-1.39 -1.02,-2.24 v -255.83 c 0,-0.85 0.368,-1.67 1.02,-2.23 l 18.742,-16.33 v -26.79 c 0,-1.05 0.559,-2.02 1.465,-2.56"
         style="fill:#40f4ff;fill-opacity:1;fill-rule:nonzero;stroke:none"
         id="path192" />
      <path
         d="m 464.398,1873.36 2.981,-5.12 77.422,45.03 -2.985,5.12 -77.418,-45.03"
         style="fill:#40f4ff;fill-opacity:1;fill-rule:nonzero;stroke:none"
         id="path194" />
      <path
         d="m 544.801,2253.87 -77.422,45.03 -2.981,-5.13 77.418,-45.02 2.985,5.12"
         style="fill:#40f4ff;fill-opacity:1;fill-rule:nonzero;stroke:none"
         id="path196" />
      <path
         d="m 794.82,2086.13 -124.351,72.33 c -0.895,0.52 -1.992,0.49 -2.903,0 l -26.765,-9.09 -149.301,86.84 -4.215,21.93 158.34,-92.1 2.984,5.13 -249.207,144.95 -0.187,-0.32 -0.629,0.35 c -0.918,0.51 -2.043,0.5 -2.945,-0.04 -0.911,-0.53 -1.465,-1.5 -1.465,-2.56 v -36.85 c 0,-1.08 0.582,-2.07 1.515,-2.59 l 19.774,-11.05 c 0.449,-0.25 0.945,-0.37 1.445,-0.37 0.516,0 1.039,0.13 1.496,0.4 0.91,0.53 1.465,1.5 1.465,2.56 v 31.7 l 60.613,-35.25 5.446,-28.33 c 0.164,-0.85 0.679,-1.57 1.418,-2.01 l 151.636,-88.19 c 0.743,-0.43 1.629,-0.52 2.446,-0.24 l 27.316,9.27 118.688,-69.03 -118.688,-69.03 -27.316,9.27 c -0.817,0.28 -1.703,0.19 -2.446,-0.25 l -151.636,-88.19 c -0.739,-0.43 -1.254,-1.16 -1.418,-2 l -5.446,-28.34 -60.613,-35.24 v 31.69 c 0,1.06 -0.555,2.03 -1.465,2.56 -0.902,0.54 -2.023,0.54 -2.941,0.03 l -19.774,-11.04 c -0.933,-0.53 -1.515,-1.52 -1.515,-2.6 v -36.85 c 0,-1.06 0.554,-2.03 1.465,-2.56 0.457,-0.27 0.98,-0.4 1.5,-0.4 0.496,0 0.996,0.12 1.445,0.37 l 0.629,0.35 0.187,-0.32 18.922,11 0.031,0.02 c 0.004,0 0.004,0 0.004,0 l 230.25,133.92 -2.984,5.13 -158.34,-92.1 4.215,21.93 149.301,86.84 26.586,-9.02 c 0.039,-0.03 0.074,-0.05 0.109,-0.07 0.922,-0.53 2.055,-0.53 2.973,0.01 L 794.82,2081 c 0.91,0.53 1.473,1.51 1.473,2.57 0,1.05 -0.563,2.03 -1.473,2.56"
         style="fill:#40f4ff;fill-opacity:1;fill-rule:nonzero;stroke:none"
         id="path198" />
      <path
         d="m 667.484,2037.04 2.985,-5.13 84.402,49.1 c 0.914,0.52 1.477,1.5 1.477,2.56 0,1.05 -0.563,2.03 -1.477,2.56 l -84.402,49.09 -2.985,-5.12 79.996,-46.53 -79.996,-46.53"
         style="fill:#40f4ff;fill-opacity:1;fill-rule:nonzero;stroke:none"
         id="path200" />
      <path
         d="m 3894.36,2033.26 86.75,50.31 -86.75,50.3 h -19.53 l 86.77,-50.3 -86.77,-50.31 z m -179.15,230.7 39.61,-23.05 18.81,4.97 -63.36,36.75 z m 39.61,-337.74 -39.61,-23.05 -4.94,-18.66 63.35,36.74 z m 294.33,159.91 -268.25,155.54 -26.94,-7.12 -43.85,25.51 -7.08,26.77 -14.58,8.45 41.52,10.98 167.63,-97.5 v -17.88 h 5.93 v 19.59 c 0,1.05 -0.57,2.03 -1.48,2.56 l -170.16,98.98 c -0.68,0.39 -1.48,0.5 -2.24,0.3 l -48.18,-12.74 0.08,-0.29 -55.38,32.11 c -0.67,0.39 -1.49,0.5 -2.24,0.3 l -24.48,-6.48 c -1.16,-0.31 -2.02,-1.28 -2.17,-2.48 -0.17,-1.18 0.41,-2.35 1.44,-2.95 l 52.1,-30.22 v -68.18 h 5.94 v 64.74 l 14.97,-8.69 c -0.12,-0.47 -0.15,-0.97 -0.01,-1.47 l 12.95,-48.96 c 0.19,-0.77 0.7,-1.43 1.39,-1.82 l 45.77,-25.93 c 0.45,-0.25 0.94,-0.38 1.45,-0.38 0.26,0 0.51,0.03 0.76,0.09 l 48.97,12.95 c 0.34,0.1 0.64,0.26 0.92,0.45 l 25.38,-14.72 -51.36,-13.59 21.2,-12.33 51.41,13.6 25.14,-14.59 -51.45,-13.61 21.2,-12.33 51.49,13.62 129.05,-74.84 -129.06,-74.85 -51.48,13.61 -21.2,-12.33 51.44,-13.6 -25.14,-14.59 -51.4,13.6 -21.2,-12.33 51.36,-13.59 -25.38,-14.72 c -0.29,0.2 -0.59,0.35 -0.92,0.44 l -48.97,12.95 c -0.75,0.2 -1.54,0.1 -2.21,-0.28 l -45.77,-25.93 c -0.69,-0.39 -1.2,-1.05 -1.39,-1.82 l -12.95,-48.96 c -0.14,-0.5 -0.11,-0.99 0.01,-1.47 l -14.97,-8.68 v 64.73 h -5.94 v -68.17 l -52.1,-30.22 c -1.03,-0.6 -1.61,-1.77 -1.44,-2.96 0.15,-1.19 1.01,-2.16 2.17,-2.47 l 24.48,-6.49 c 0.25,-0.06 0.5,-0.09 0.76,-0.09 0.52,0 1.03,0.13 1.48,0.4 l 55.38,32.11 -0.08,-0.3 48.18,-12.75 c 0.24,-0.06 0.5,-0.09 0.75,-0.09 0.52,0 1.04,0.13 1.49,0.4 l 170.16,98.98 c 0.91,0.53 1.48,1.51 1.48,2.56 v 19.35 h -5.93 v -17.65 l -167.63,-97.5 -41.53,10.99 14.59,8.46 7.08,26.76 43.85,25.51 26.94,-7.12 268.25,155.54 c 0.91,0.53 1.48,1.51 1.48,2.57 0,1.05 -0.57,2.03 -1.48,2.56 z m -391.41,-18.26 33.7,-33.7 84.91,49.39 -84.91,49.4 -33.7,-33.7 h -71.22 v -31.39 z m 28.39,-36.78 -30.85,30.84 h -68.76 v -88.79 z m -30.85,74.11 30.85,30.84 -99.61,57.94 v -88.78 z m 8.4,-137.91 -72.7,-42.29 c -0.46,-0.27 -0.98,-0.4 -1.49,-0.4 -0.52,0 -1.02,0.13 -1.48,0.39 -0.92,0.53 -1.49,1.51 -1.49,2.57 v 38.72 l 201.62,117.28 -201.62,117.28 v 38.73 c 0,1.05 0.57,2.04 1.49,2.57 0.92,0.53 2.06,0.52 2.97,-0.01 l 72.7,-42.29 4.97,-18.8 38.75,-22.53 18.79,4.97 132.98,-77.35 c 0.92,-0.53 1.47,-1.51 1.47,-2.57 0,-1.05 -0.55,-2.03 -1.47,-2.56 l -132.98,-77.35 -18.79,4.97 -38.75,-22.54 -4.97,-18.79"
         style="fill:#40f4ff;fill-opacity:1;fill-rule:nonzero;stroke:none"
         id="path202" />
      <path
         d="m 5426.01,562.238 0.96,-1.578 27.38,-44.5 -28.34,-46.07 55.18,45.371 0.08,0.059 z m -146.38,81.543 c 0.66,0 1.33,0.219 1.87,0.66 1.27,1.039 1.47,2.911 0.43,4.18 l -27.61,33.91 c -1.04,1.27 -2.9,1.457 -4.17,0.43 -1.27,-1.039 -1.47,-2.91 -0.43,-4.18 l 27.61,-33.91 c 0.59,-0.723 1.44,-1.09 2.3,-1.09 z m 11.13,-241.359 c -1.03,-1.281 -0.84,-3.141 0.43,-4.184 0.55,-0.449 1.21,-0.656 1.87,-0.656 0.86,0 1.72,0.367 2.3,1.09 l 93.52,114.859 c 0.89,1.09 0.89,2.649 0,3.75 l -93.52,114.84 c -1.03,1.277 -2.9,1.461 -4.17,0.43 -1.27,-1.039 -1.46,-2.903 -0.43,-4.172 l 91.99,-112.981 z m -13.46,-16.531 -27.6,-33.911 c -1.04,-1.269 -0.85,-3.128 0.42,-4.171 0.55,-0.45 1.22,-0.661 1.87,-0.661 0.86,0 1.72,0.372 2.31,1.082 l 27.6,33.918 c 1.04,1.274 0.84,3.133 -0.43,4.172 -1.26,1.032 -3.13,0.84 -4.17,-0.429 z m -60.53,-70.661 c -0.56,-1.531 0.23,-3.23 1.77,-3.781 0.34,-0.129 0.68,-0.179 1.01,-0.179 1.21,0 2.35,0.742 2.79,1.949 l 22.66,62.633 112.1,137.679 c 0.89,1.09 0.89,2.649 0,3.75 l -112.1,137.66 -22.66,62.641 c -0.55,1.539 -2.26,2.328 -3.8,1.777 -1.54,-0.558 -2.33,-2.257 -1.77,-3.8 l 22.82,-63.11 49.58,-137.051 -49.58,-137.046 z m 165.82,332.7 -13.18,7.66 -29.55,-17.18 11.18,-8.828 z m -31.55,-246.711 -11.19,-8.828 29.55,-17.18 13.18,7.66 z m -16.19,-12.77 -127.56,-100.699 c -1.23,-0.961 -1.49,-2.711 -0.62,-3.988 0.58,-0.84 1.5,-1.301 2.46,-1.301 0.51,0 1.02,0.129 1.49,0.398 l 152.89,88.922 z m 28.67,270.571 -152.9,88.941 c -1.34,0.777 -3.07,0.391 -3.95,-0.902 -0.87,-1.289 -0.61,-3.028 0.62,-3.989 l 127.57,-100.718 z m 243.99,-143.622 c 0,-1.046 -0.57,-2.027 -1.47,-2.57 l -217.56,-126.527 -32.44,18.871 46.27,36.527 32.75,4.422 87.18,68.219 1.37,1.058 -4.84,3.782 -83.71,65.5 -32.74,4.41 -46.28,36.539 32.45,18.871 217.55,-126.539 c 0.9,-0.531 1.47,-1.5 1.47,-2.563"
         style="fill:#40f4ff;fill-opacity:1;fill-rule:nonzero;stroke:none"
         id="path204" />
      <path
         d="M 3179,515.41 2783.58,745.398 2836.24,699.77 3109.04,515.41 2836.25,331.051 2783.58,285.422 3179,515.41"
         style="fill:#40f4ff;fill-opacity:1;fill-rule:nonzero;stroke:none"
         id="path206" />
      <path
         d="M 3098.45,515.41 2865.88,672.582 3021.96,515.41 2865.88,358.238 3098.45,515.41"
         style="fill:#2b98ad;fill-opacity:1;fill-rule:nonzero;stroke:none"
         id="path208" />
      <path
         d="m 2981.29,515.41 -101.93,106.11 68.41,-106.11 -68.41,-106.109 101.93,106.109"
         style="fill:#163c5b;fill-opacity:1;fill-rule:nonzero;stroke:none"
         id="path210" />
      <path
         d="m 2857.3,304.711 c 1.69,0.437 3.12,1.309 4.57,2.16 l 4.35,2.527 8.71,5.071 34.83,20.261 34.82,20.25 8.71,5.071 4.35,2.531 c 1.44,0.867 2.94,1.629 4.17,2.84 l 7.36,7.398 3.67,3.7 3.59,3.851 -139.31,-81.019 c 6.83,1.609 13.45,3.578 20.18,5.359"
         style="fill:#40f4ff;fill-opacity:1;fill-rule:nonzero;stroke:none"
         id="path212" />
      <path
         d="m 3211.58,520.539 -92.87,54.012 -46.43,27.008 c -14.88,10.043 -32.48,15.402 -49.42,21.882 L 3208.59,515.41 v 0 l -46.43,-27.012 c 4.27,1.582 8.54,3.122 12.75,4.782 l 12.7,4.902 c 4.21,1.668 8.58,3.039 12.36,5.449 l 11.61,6.75 8.81,5.129 -8.81,5.129"
         style="fill:#40f4ff;fill-opacity:1;fill-rule:nonzero;stroke:none"
         id="path214" />
      <path
         d="m 2926.95,685.602 c -0.23,0.707 -0.75,0.918 -1.23,1.207 l -1.46,0.839 -2.9,1.692 -11.6,6.742 -11.62,6.758 -2.9,1.691 -1.45,0.84 c -0.48,0.27 -0.92,0.641 -1.63,0.539 -2.8,-0.371 -5.61,-0.738 -8.61,-1.449 l 46.44,-27 c -0.91,2.879 -2.03,5.41 -3.04,8.141"
         style="fill:#40f4ff;fill-opacity:1;fill-rule:nonzero;stroke:none"
         id="path216" />
      <path
         d="m 324.246,752.301 1.113,2.758 1.118,2.742 36.828,-14.942 -1.114,-2.75 -1.113,-2.75 z m 529.27,-214.719 -114.125,46.309 2.23,5.48 114.125,-46.289 -1.113,-2.754 z m -491.325,-246.883 1.114,-2.738 -36.828,-14.941 -2.231,5.492 36.832,14.937 z m 492.442,199.793 1.113,-2.754 -114.125,-46.297 -1.117,2.75 -1.113,2.739 114.125,46.3 z M 477.555,312.77 l -16.075,-6.52 -76.671,30.379 16.07,6.512 z m -24.032,-9.739 -41.351,-16.781 c -0.356,-0.148 -0.734,-0.211 -1.113,-0.211 -0.395,0 -0.786,0.07 -1.157,0.231 l -42.695,18.05 c -0.375,0.149 -0.684,0.41 -0.953,0.68 l -71.453,-28.98 c -0.363,-0.149 -0.742,-0.219 -1.113,-0.219 -0.782,0 -1.547,0.301 -2.118,0.879 -0.843,0.859 -1.086,2.129 -0.617,3.23 l 9.012,21.36 c 0.308,0.718 0.89,1.3 1.617,1.589 l 75.273,30.539 z m -52.625,384.649 -16.074,6.519 76.676,30.371 16.074,-6.519 z m -24.027,9.742 -75.289,30.547 c -0.727,0.293 -1.309,0.871 -1.617,1.59 l -9.012,21.339 c -0.469,1.102 -0.226,2.383 0.617,3.231 0.84,0.859 2.121,1.121 3.231,0.672 l 71.445,-28.981 c 0.274,0.282 0.578,0.539 0.961,0.692 l 42.695,18.058 c 0.723,0.301 1.539,0.301 2.27,0.012 l 41.375,-16.793 z M 535.813,426.871 747.32,512.672 c 1.121,0.449 1.852,1.539 1.852,2.75 0,1.199 -0.731,2.289 -1.852,2.738 L 535.813,603.969 521.023,638.941 825.512,515.41 521.023,391.879 Z m 342.316,91.277 -7.781,3.172 h -0.004 l -145.086,58.86 -19.082,45.121 -21.457,8.711 19.082,-45.133 -23.965,9.723 -19.082,45.128 -21.461,8.711 19.074,-45.132 -24.304,9.863 c 0,0.398 -0.047,0.789 -0.208,1.168 l -18.05,42.699 c -0.309,0.723 -0.887,1.293 -1.617,1.59 l -128.661,52.191 -76.675,-30.371 104.402,-42.359 17.57,-41.559 c 0.309,-0.73 0.891,-1.289 1.617,-1.59 L 606.48,568.898 V 461.93 l -74.039,-30.039 c -0.726,-0.289 -1.308,-0.86 -1.617,-1.59 l -17.57,-41.571 -104.414,-42.351 76.668,-30.367 128.68,52.187 c 0.73,0.313 1.308,0.871 1.617,1.59 l 18.05,42.711 c 0.161,0.371 0.208,0.762 0.208,1.148 l 24.304,9.872 -19.074,-45.129 21.461,8.711 19.074,45.128 23.965,9.711 -19.074,-45.121 21.457,8.711 19.082,45.117 145.086,58.864 7.781,3.148 c 1.117,0.461 1.855,1.539 1.855,2.75 0,1.199 -0.734,2.301 -1.851,2.738"
         style="fill:#40f4ff;fill-opacity:1;fill-rule:nonzero;stroke:none"
         id="path218" />
      <path
         d="m 2176.01,380.512 -0.26,0.097 109.17,45.7 -36.53,34.429 -68.62,-28.636 V 407.5 l -90,-37.559 18.7,-17.632 5.6,2.351 -0.16,0.059 15.95,6.679 0.19,-0.066 14.42,6.008 -0.2,0.09 15.96,6.679 0.23,-0.097 z m -190.57,87.75 33.54,-31.602 21.23,0.551 34.24,-32.52 0.55,-20.82 10.04,-9.48 88.8,37.07 v 24.578 l 69.83,29.16 -23.72,22.352 -91.6,-6.082 -15.89,-18.168 -76.65,-5.11 -18.15,15.918 -35.88,-2.39 z m 347.48,-28.692 -0.09,-0.039 -10.4,-25.383 -113.05,-47.316 -25.61,10.488 -15.54,-6.488 25.63,-10.512 -15.95,-6.679 -25.67,10.519 -14.42,-6.019 25.68,-10.52 -15.96,-6.68 -25.7,10.528 -13.02,-5.43 -1.41,-0.59 25.72,-10.551 -15.95,-6.679 -25.75,10.562 -24.43,-10.211 -153.4,144.559 62.29,4.141 v 0 l 35.47,2.371 h -0.01 l 81.61,5.418 0.4,-5.918 -67.34,-4.469 11.85,-10.391 71.74,4.77 15.9,18.179 1.22,0.071 94.04,6.25 51.25,3.398 z m -52.82,57.918 58.81,-55.418 168.99,70.571 z m -268.94,-124.437 -105.08,99.019 0.57,0.61 -18.89,-1.258 104.89,-98.852 z m 268.94,160.269 227.8,-15.14 -168.99,70.558 z m -151.75,16.032 91.6,-6.09 23.72,22.359 -69.83,29.149 v 24.601 l -88.8,37.059 -10.04,-9.481 -0.55,-20.828 -34.24,-32.512 -21.23,0.551 -33.54,-31.609 -3.66,-3.449 35.88,-2.391 18.15,15.918 76.65,-5.109 z m -14.44,126.738 0.16,0.07 -5.6,2.34 -18.7,-17.621 90,-37.57 v -24.59 l 68.62,-28.637 36.53,34.418 -109.17,45.711 0.26,0.098 -15.55,6.492 -0.23,-0.09 -15.96,6.68 0.2,0.078 -14.42,6.019 -0.19,-0.078 z m 158.11,-142.231 -51.64,3.43 -94.87,6.301 -15.9,18.172 -71.74,4.777 -11.85,-10.391 67.34,-4.476 -0.4,-5.922 -81.61,5.43 h 0.01 l -35.47,2.359 v 0 l -62.29,4.152 153.4,144.559 24.43,-10.211 25.75,10.551 15.95,-6.68 -25.72,-10.539 1.41,-0.59 13.02,-5.429 25.7,10.527 15.96,-6.688 -25.68,-10.511 14.42,-6.032 25.67,10.524 15.95,-6.68 -25.63,-10.512 15.54,-6.48 25.61,10.488 113.05,-47.316 10.4,-25.391 0.09,-0.031 z m -365.94,24.891 0.57,-0.609 -18.89,1.257 104.89,98.852 18.51,-0.48 -105.08,-99.02"
         style="fill:#40f4ff;fill-opacity:1;fill-rule:nonzero;stroke:none"
         id="path220" />
      <path
         d="m 3722.16,353.141 10.95,1.589 21.88,3.168 c 1.83,0.282 3.61,0.641 5.32,1.211 1.72,0.563 3.4,1.211 5.11,1.821 l 10.18,3.691 20.36,7.379 81.43,29.539 81.44,29.543 20.36,7.387 10.18,3.691 c 3.38,1.25 6.83,2.328 9.98,4.262 12.58,7.629 25.17,15.25 37.54,23.488 L 3711.14,351.762 Z m 305.4,213.789 -9.42,5.8 -18.82,11.602 c -1.59,0.949 -3.19,1.816 -4.87,2.488 -1.68,0.66 -3.39,1.239 -5.07,1.86 l -10.19,3.691 -20.36,7.391 -81.44,29.519 -81.44,29.52 -20.36,7.371 -10.19,3.687 c -3.4,1.211 -6.74,2.602 -10.38,3.133 -14.56,2.207 -29.11,4.43 -43.89,6.028 L 4036.9,560.941 Z m -233.3,-54.489 v 5.93 h -158.42 v -5.93 z m 195.59,2.969 52.85,29.379 -53.54,19.402 v 0 l -49.33,17.879 0.58,0.27 -196.11,71.09 -25.78,-39.032 81.64,-29.589 25.32,11.851 82.01,-29.73 24.75,11.59 50.05,-18.149 -80.86,-44.961 80.86,-44.961 -50.05,-18.148 -24.75,11.578 -82.01,-29.719 -25.32,11.852 -81.64,-29.59 25.78,-39.031 196.11,71.089 -0.58,0.27 49.33,17.879 v 0 l 53.54,19.41 z m 12.21,0 48.02,-26.699 21.14,7.66 52.52,19.039 -52.52,19.031 -21.14,7.668 z m -289.28,-101.07 -17.68,-6.41 25.78,-39.02 17.68,6.399 z m -23.41,-8.488 -47.88,-17.352 -27.25,-58.262 100.9,36.594 z m 25.77,258.136 -100.9,36.582 27.25,-58.25 47.88,-17.351 z m 23.42,-8.476 -17.68,6.398 -25.78,-39.019 17.68,-6.411 z m -108.67,-174.481 -60.97,-3.269 -0.62,0.25 -91.86,37.41 92.48,37.629 87.99,-4.719 229.42,-12.281 -0.31,-5.922 -237.17,12.691 -67.39,-27.398 68.16,-27.75 236.42,12.648 0.32,-5.922 -256.45,-13.726 -0.02,0.359"
         style="fill:#40f4ff;fill-opacity:1;fill-rule:nonzero;stroke:none"
         id="path222" />
      <path
         d="m 4575.47,465.148 5.32,2.602 -10.43,21.309 -5.33,-2.598 z m -13.06,-6.398 -10.43,21.309 -5.32,-2.61 10.43,-21.308 z m -23.7,-11.602 5.32,2.614 -10.43,21.297 -5.32,-2.598 z m -18.38,-9.007 5.33,2.609 -10.44,21.309 -5.32,-2.61 z m -18.38,-8.993 5.34,2.614 -10.44,21.308 -5.33,-2.609 z m -18.38,-9 5.34,2.602 -10.44,21.309 -5.33,-2.598 z m -18.37,-9 5.33,2.614 -10.44,21.308 -5.32,-2.609 z m -18.38,-9 5.33,2.614 -10.44,21.297 -5.32,-2.598 z m 133.97,169.672 -5.32,2.602 -10.44,-21.301 5.33,-2.609 z m -23.7,11.602 -10.43,-21.313 5.32,-2.609 10.43,21.309 z m -18.38,9 -10.43,-21.313 5.32,-2.597 10.43,21.297 z m -18.38,9.008 -10.43,-21.321 5.32,-2.609 10.44,21.309 z m -18.38,8.992 -10.43,-21.313 5.33,-2.609 10.44,21.309 z m -18.38,9 -10.43,-21.313 5.33,-2.609 10.44,21.309 z m -18.37,9 -10.43,-21.313 5.32,-2.609 10.44,21.309 z m -18.38,9 -10.43,-21.32 5.32,-2.602 10.44,21.301 z m 144.21,-155.113 76.33,37.589 -76.42,37.422 -2.61,-5.32 65.58,-32.121 -65.51,-32.25 z m -37.81,21.113 -136.4,-67.16 2.62,-5.321 136.41,67.161 z m -136.58,99.719 136.59,-66.879 2.61,5.316 -136.59,66.891 z m 280.22,-42.602 82.98,-40.629 -83,-40.879 21.03,-8.929 101.18,49.687 -101.18,49.672 z m -14.25,-81.898 83.78,41.25 -83.8,41.031 28.25,12 -102.5,50.328 -12.22,-5.129 -139.94,68.711 -3.41,12.809 -31.68,15.558 v -47.91 l 300.39,-147.5 -300.39,-147.5 v -47.918 l 31.68,15.559 3.41,12.8 139.94,68.731 12.22,-5.141 102.5,50.328 z m -267.44,239.468 -19.67,9.653 -4.28,2.097 V 603.93 h 5.93 v 75.109 l 18.02,-8.84 z m 0,-396.648 -23.95,-11.75 v 125.93 h 5.93 v -75.11 l 18.02,8.84 v -47.91"
         style="fill:#40f4ff;fill-opacity:1;fill-rule:nonzero;stroke:none"
         id="path224" />
      <path
         d="m 1363.29,652.922 58.09,-53.844 -20.03,-0.758 -37.3,34.571 z m 58.1,-221.172 -58.11,-53.84 0.77,20.039 37.3,34.571 z m 6.15,5.699 -27.19,1.039 c -0.79,0.063 -1.55,-0.258 -2.13,-0.777 l -39.1,-36.25 c -0.58,-0.531 -0.92,-1.27 -0.95,-2.063 l -1.04,-27.187 -65.24,-60.461 v 120.781 l 87.11,80.707 v 0 l 2.35,2.184 -2.35,2.168 v 0.012 l -87.11,80.707 V 719.07 l 65.24,-60.461 1.04,-27.168 c 0.03,-0.8 0.37,-1.531 0.95,-2.07 l 39.1,-36.242 c 0.55,-0.5 1.27,-0.789 2.02,-0.789 0.03,0 0.07,0 0.11,0 l 27.18,1.039 84.14,-77.957 z m 91.46,77.973 c 0,0.816 -0.34,1.609 -0.95,2.18 l -87.81,81.359 -0.02,0.461 -0.46,-0.024 -66.8,61.903 -0.01,0.461 -0.46,-0.02 -71.55,66.297 c -0.86,0.801 -2.12,1.012 -3.2,0.531 -1.08,-0.461 -1.78,-1.531 -1.78,-2.711 v -122.058 -6.789 -18.321 l 68.29,-63.269 -68.29,-63.274 v -18.316 -6.801 -122.07 c 0,-1.18 0.7,-2.25 1.78,-2.723 0.38,-0.168 0.79,-0.25 1.19,-0.25 0.73,0 1.45,0.282 2.01,0.793 l 71.56,66.321 0.45,-0.024 0.01,0.442 66.81,61.921 0.45,-0.019 0.02,0.449 87.81,81.367 c 0.61,0.571 0.95,1.352 0.95,2.184"
         style="fill:#40f4ff;fill-opacity:1;fill-rule:nonzero;stroke:none"
         id="path226" />
      <path
         d="m 1400.99,575.559 -8.19,-0.321 -6.01,5.563 -39.1,36.238 -6,5.582 -0.31,8.18 -0.77,20.211 -31.91,29.578 v -74.942 l 97.37,-90.226 -97.37,-90.231 V 350.23 l 31.91,29.579 0.77,20.23 0.31,8.18 6,5.582 39.1,36.238 6.01,5.563 8.19,-0.332 20.22,-0.77 65.74,60.922 -65.74,60.91 -20.22,-0.773"
         style="fill:#163c5b;fill-opacity:1;fill-rule:nonzero;stroke:none"
         id="path228" />
      <path
         d="m 1345.52,515.422 -59.56,55.187 V 460.23 Z"
         style="fill:#40f4ff;fill-opacity:1;fill-rule:nonzero;stroke:none"
         id="path230" />
    </g>
  </g>
</svg>
