<?xml version="1.0" encoding="UTF-8" standalone="no"?>
<!-- Created with Inkscape (http://www.inkscape.org/) -->

<svg
   version="1.1"
   id="svg2"
   width="40"
   height="30"
   viewBox="373 162 50 70"
   sodipodi:docname="2208.m05.iG15.n028.eps"
   xmlns:inkscape="http://www.inkscape.org/namespaces/inkscape"
   xmlns:sodipodi="http://sodipodi.sourceforge.net/DTD/sodipodi-0.dtd"
   xmlns="http://www.w3.org/2000/svg"
   xmlns:svg="http://www.w3.org/2000/svg">
  <defs
     id="defs6" />
  <sodipodi:namedview
     id="namedview4"
     pagecolor="#ffffff"
     bordercolor="#000000"
     borderopacity="0.25"
     inkscape:showpageshadow="2"
     inkscape:pageopacity="0.0"
     inkscape:pagecheckerboard="0"
     inkscape:deskcolor="#d1d1d1" />
  <g
     id="g8"
     inkscape:groupmode="layer"
     inkscape:label="ink_ext_XXXXXX"
     transform="matrix(1.3333333,0,0,-1.3333333,0,474.66667)">
    <g
       id="g10"
       transform="scale(0.1)">
      <path
         d="m 3072.68,1929.97 h 25.08 l 115.62,153.61 -27.07,35.28 -25.5,1.21 -39.02,51.84 -83.72,111.64 h 78.37 l 39.38,-52.33 h 25.35 l 111.13,-147.66 -50.29,-66.83 -25.66,-1.22 -60.51,-80.11 c -0.21,-0.16 -0.38,-0.33 -0.54,-0.54 l -38.6,-51.28 h -78.94 z m 114.27,151.8 c 0.79,1.06 0.79,2.52 0,3.57 l -21.51,28.58 17.83,-0.85 22.66,-29.53 -111.13,-147.64 h -17.66 z m -20.29,170.31 h -19.11 l -23.69,31.47 h 19.11 z m 11.24,-14.93 h -19.12 l -6.77,8.99 h 19.12 z m -11.76,-322.78 -5.17,17.98 58.38,77.3 h 18.52 z m 133.44,170.97 -152.75,202.96 c -0.57,0.74 -1.45,1.18 -2.38,1.18 h -112.63 c -1.13,0 -2.15,-0.64 -2.65,-1.64 -0.51,-1.01 -0.4,-2.21 0.28,-3.11 l 87.34,-116.04 40.8,-54.4 0.15,-0.01 23.13,-30.72 -111.15,-147.66 h -0.27 l -40,-53.16 c -0.42,-0.55 -0.6,-1.2 -0.58,-1.84 -0.05,-0.54 0.05,-1.1 0.3,-1.6 0.5,-1.01 1.52,-1.64 2.65,-1.64 h 86.36 24.75 1.52 c 0.93,0 1.81,0.43 2.38,1.18 l 152.75,202.93 c 0.8,1.06 0.8,2.52 0,3.57"
         style="fill:#40f4ff;fill-opacity:1;fill-rule:nonzero;stroke:none"
         id="path156" />
      <path
         d="m 3202.09,2024.53 5.6,7.39 9.24,0.44 16.4,0.79 37.96,50.41 -98.51,130.84 h -25.34 l -5.93,7.89 -33.45,44.45 h -36.61 l 66.23,-88 31.8,-42.25 16.25,-0.77 9.16,-0.46 5.58,-7.25 24.87,-32.4 9.15,-11.93 -9.03,-12.02 -113.39,-150.62 -5.93,-7.88 h -25.09 l -9.6,-12.77 h 36.88 l 93.76,124.14"
         style="fill:#163c5b;fill-opacity:1;fill-rule:nonzero;stroke:none"
         id="path158" />
      <path
         d="m 2975.82,1883.58 h -17.91 l 61.24,81.59 h 18.09 z m 43.97,198.19 c 0.81,1.06 0.81,2.52 0,3.57 l -149.18,198.21 h 80.45 l 82.86,-110.04 c 0.53,-0.7 1.34,-1.14 2.22,-1.18 l 24.26,-1.15 52.09,-69.2 c 5.25,-6.98 10.05,-13.36 13.86,-18.42 -30.01,-39.87 -77.74,-103.08 -84.82,-112.46 h -23.86 c -0.94,0 -1.82,-0.44 -2.38,-1.18 l -64.8,-86.34 h -79.87 z m 113.24,1.79 c 0,0.62 -0.2,1.25 -0.6,1.78 -19.13,25.41 -68.06,90.46 -68.1,90.51 0,0 0,0 -0.01,0.01 l -84.65,112.44 c -0.02,0.03 -0.05,0.04 -0.08,0.07 -0.56,0.7 -1.39,1.11 -2.29,1.11 h -112.63 c -1.13,0 -2.16,-0.64 -2.65,-1.64 -0.51,-1.01 -0.4,-2.21 0.28,-3.11 L 3013.72,2083.56 2862.3,1882.4 c -0.68,-0.9 -0.79,-2.1 -0.28,-3.1 0.49,-1.01 1.52,-1.64 2.65,-1.64 h 112.63 c 0.93,0 1.81,0.43 2.37,1.18 l 152.76,202.93 c 0.4,0.53 0.6,1.16 0.6,1.79"
         style="fill:#36c6d6;fill-opacity:1;fill-rule:nonzero;stroke:none"
         id="path160" />
      <path
         d="m 3001.85,1980 5.93,7.91 h 24.26 l 72,95.65 -53.63,71.26 -15.07,0.73 -9.28,0.44 -5.57,7.41 -77.81,103.34 h -39.67 l 137.89,-183.18 -137.89,-183.17 h 39.07 l 59.77,79.61"
         style="fill:#15334f;fill-opacity:1;fill-rule:nonzero;stroke:none"
         id="path162" />
      <path
         d="m 2806.12,1883.58 h -17.32 l 11.92,15.84 h 17.32 z m 10.89,37.48 67.39,89.54 17.48,0.2 -67.55,-89.74 z m -4.47,-5.93 h 17.33 l -7.37,-9.78 h -17.31 z m 37.56,166.64 c 0.79,1.06 0.79,2.52 0,3.57 l -149.19,198.21 h 79.87 l 38.49,-51.15 c 0.56,-0.74 1.44,-1.18 2.38,-1.18 h 23.86 l 42.86,-56.95 68.28,-90.71 -35.07,-46.59 -15.19,-20.18 -23.51,-0.28 c -0.92,-0.01 -1.78,-0.45 -2.33,-1.18 l -99.17,-131.75 h -80.47 z m -9.06,155.38 h -17.91 l -34.93,46.4 h 17.92 z m 122.29,-153.59 c 0,0.62 -0.2,1.25 -0.6,1.78 l -73.19,97.24 -79.57,105.72 c -0.56,0.74 -1.43,1.18 -2.37,1.18 h -112.63 c -1.13,0 -2.15,-0.64 -2.66,-1.64 -0.5,-1.01 -0.39,-2.21 0.29,-3.11 L 2844.02,2083.56 2692.6,1882.4 c -0.68,-0.9 -0.79,-2.1 -0.29,-3.1 0.51,-1.01 1.53,-1.64 2.66,-1.64 h 112.63 c 0.94,0 1.81,0.43 2.37,1.18 l 152.76,202.93 c 0.4,0.53 0.6,1.16 0.6,1.79"
         style="fill:#2b98ad;fill-opacity:1;fill-rule:nonzero;stroke:none"
         id="path164" />
      <path
         d="m 2867.11,2025.44 5.85,7.77 9.73,0.1 15.23,0.18 h 0.01 l 37.69,50.07 -98.5,130.84 h -25.35 l -5.93,7.89 -33.43,44.45 h -37.83 l 137.89,-183.18 -137.87,-183.17 h 38.4 l 94.11,125.05"
         style="fill:#142942;fill-opacity:1;fill-rule:nonzero;stroke:none"
         id="path166" />
    </g>
  </g>
</svg>
